<svg width="32" height="32" viewBox="0 0 32 32" fill="none" xmlns="http://www.w3.org/2000/svg">
<path d="M23.9993 17.3332H17.3327V23.9998C17.3327 24.7332 16.7327 25.3332 15.9993 25.3332C15.266 25.3332 14.666 24.7332 14.666 23.9998V17.3332H7.99935C7.26602 17.3332 6.66602 16.7332 6.66602 15.9998C6.66602 15.2665 7.26602 14.6665 7.99935 14.6665H14.666V7.99984C14.666 7.2665 15.266 6.6665 15.9993 6.6665C16.7327 6.6665 17.3327 7.2665 17.3327 7.99984V14.6665H23.9993C24.7327 14.6665 25.3327 15.2665 25.3327 15.9998C25.3327 16.7332 24.7327 17.3332 23.9993 17.3332Z" fill="black"/>
</svg>
