<svg width="32" height="32" viewBox="0 0 32 32" fill="none" xmlns="http://www.w3.org/2000/svg">
<path d="M19.1302 24.6009C18.7569 25.7876 17.7836 26.7609 16.5969 27.1343C14.5836 27.7743 12.6769 26.8276 11.8102 25.2409C11.3436 24.3742 12.0369 23.3342 13.0236 23.3342H13.0369C13.4902 23.3342 13.9436 23.5476 14.1569 23.9476C14.3836 24.3742 14.8236 24.6676 15.3436 24.6676C16.0769 24.6676 16.6769 24.0676 16.6769 23.3342C16.6769 22.6009 16.0769 22.0009 15.3436 22.0009H3.99691C3.26357 22.0009 2.66357 21.4009 2.66357 20.6676C2.66357 19.9342 3.26357 19.3342 3.99691 19.3342H15.3302C17.9436 19.3342 19.9969 21.8676 19.1302 24.6009ZM25.2102 8.22758C24.8236 6.54758 23.4502 5.17425 21.7702 4.78758C19.4236 4.25425 17.2769 5.49425 16.4102 7.42758C15.9969 8.32092 16.6369 9.33425 17.6102 9.33425C18.1302 9.33425 18.6102 9.04091 18.8102 8.57425C19.1169 7.84091 19.8236 7.33425 20.6636 7.33425C21.7702 7.33425 22.6636 8.22758 22.6636 9.33425C22.6636 10.4409 21.7702 11.3342 20.6636 11.3342H3.99691C3.26357 11.3342 2.66357 11.9342 2.66357 12.6676C2.66357 13.4009 3.26357 14.0009 3.99691 14.0009H20.6636C23.5969 14.0009 25.9036 11.2809 25.2102 8.22758ZM24.5302 15.3342H3.99691C3.26357 15.3342 2.66357 15.9342 2.66357 16.6676C2.66357 17.4009 3.26357 18.0009 3.99691 18.0009H24.6636C25.7702 18.0009 26.6636 18.8942 26.6636 20.0009C26.6636 20.8409 26.1569 21.5476 25.4236 21.8542C24.9436 22.0542 24.6636 22.5342 24.6636 23.0542C24.6636 24.0276 25.6769 24.6676 26.5702 24.2676C28.4769 23.4142 29.7036 21.3209 29.2369 19.0276C28.7836 16.8409 26.7569 15.3342 24.5302 15.3342Z" fill="#FFCE0A"/>
</svg>
