<svg width="24" height="24" viewBox="0 0 24 24" fill="none" xmlns="http://www.w3.org/2000/svg">
<path d="M1 3C1 1.89543 1.89543 1 3 1H10C11.1046 1 12 1.89543 12 3V9C12 10.1046 11.1046 11 10 11H3C1.89543 11 1 10.1046 1 9V3ZM3.5 4C3.22386 4 3 4.22386 3 4.5C3 4.77614 3.22386 5 3.5 5H9.5C9.77614 5 10 4.77614 10 4.5C10 4.22386 9.77614 4 9.5 4H3.5ZM3.5 7C3.22386 7 3 7.22386 3 7.5C3 7.77614 3.22386 8 3.5 8H9.5C9.77614 8 10 7.77614 10 7.5C10 7.22386 9.77614 7 9.5 7H3.5Z" fill="#3D9EFF"/>
<path d="M16.7521 8.5C17.1675 8.5 17.5042 8.83673 17.5042 9.25212C17.5042 9.6675 17.1675 10.0042 16.7521 10.0042C16.3367 10.0042 16 9.6675 16 9.25212C16 8.83673 16.3367 8.5 16.7521 8.5Z" fill="#3D9EFF"/>
<path d="M13 9C13 10.6569 11.6569 12 10 12H4V18.75C4 19.3771 4.17758 19.9626 4.4852 20.4592L11.4238 13.6475L11.5592 13.5248C12.3941 12.8273 13.615 12.8293 14.4477 13.5306L14.5762 13.6475L21.5148 20.4592C21.8224 19.9626 22 19.3771 22 18.75V7.25C22 5.45507 20.5449 4 18.75 4H13V9ZM16.7521 7C17.9959 7 19.0042 8.00831 19.0042 9.25212C19.0042 10.4959 17.9959 11.5042 16.7521 11.5042C15.5083 11.5042 14.5 10.4959 14.5 9.25212C14.5 8.00831 15.5083 7 16.7521 7Z" fill="#3D9EFF"/>
<path d="M12.4746 14.7177L12.5582 14.6467C12.8174 14.4574 13.1705 14.455 13.432 14.6397L13.5254 14.7177L20.4531 21.5184C19.9578 21.8237 19.3745 21.9998 18.75 21.9998H7.24996C6.62547 21.9998 6.04211 21.8237 5.54688 21.5184L12.4746 14.7177Z" fill="#3D9EFF"/>
</svg>
