<svg width="33" height="32" viewBox="0 0 33 32" fill="none" xmlns="http://www.w3.org/2000/svg">
<path d="M27.7187 6.97333L25.8654 4.73333C25.5054 4.28 24.9587 4 24.332 4H8.33203C7.70536 4 7.1587 4.28 6.78536 4.73333L4.94536 6.97333C4.5587 7.42667 4.33203 8.02667 4.33203 8.66667V25.3333C4.33203 26.8 5.53203 28 6.9987 28H25.6654C27.132 28 28.332 26.8 28.332 25.3333V8.66667C28.332 8.02667 28.1054 7.42667 27.7187 6.97333ZM8.65203 6.66667H24.012L25.092 7.96H7.58536L8.65203 6.66667ZM6.9987 25.3333V10.6667H25.6654V25.3333H6.9987ZM18.2654 13.3333H14.3987V17.3333H10.9987L16.332 22.6667L21.6654 17.3333H18.2654V13.3333Z" fill="#B8B8B8"/>
</svg>
