<svg width="18" height="18" viewBox="0 0 18 18" fill="none" xmlns="http://www.w3.org/2000/svg">
<path d="M10 17.5C14.1421 17.5 17.5 14.1421 17.5 10C17.5 5.85786 14.1421 2.5 10 2.5C5.85786 2.5 2.5 5.85786 2.5 10C2.5 14.1421 5.85786 17.5 10 17.5Z" fill="#FFD1D6"/>
<path d="M10 17.5C14.1421 17.5 17.5 14.1421 17.5 10C17.5 5.85786 14.1421 2.5 10 2.5C5.85786 2.5 2.5 5.85786 2.5 10C2.5 14.1421 5.85786 17.5 10 17.5Z" stroke="#D10014" stroke-miterlimit="10"/>
<path d="M8.4375 7.8125H12.1875V11.5625" stroke="#D10014" stroke-linecap="round" stroke-linejoin="round"/>
<path d="M7.8125 12.1875L12.1875 7.8125" stroke="#D10014" stroke-linecap="round" stroke-linejoin="round"/>
</svg>
