<svg width="32" height="32" viewBox="0 0 32 32" fill="none" xmlns="http://www.w3.org/2000/svg">
<path d="M25.3333 4H6.66667C5.2 4 4 5.2 4 6.66667V25.3333C4 26.8 5.2 28 6.66667 28H25.3333C26.8 28 28 26.8 28 25.3333V6.66667C28 5.2 26.8 4 25.3333 4ZM17.3333 22.6667H10.6667C9.93333 22.6667 9.33333 22.0667 9.33333 21.3333C9.33333 20.6 9.93333 20 10.6667 20H17.3333C18.0667 20 18.6667 20.6 18.6667 21.3333C18.6667 22.0667 18.0667 22.6667 17.3333 22.6667ZM21.3333 17.3333H10.6667C9.93333 17.3333 9.33333 16.7333 9.33333 16C9.33333 15.2667 9.93333 14.6667 10.6667 14.6667H21.3333C22.0667 14.6667 22.6667 15.2667 22.6667 16C22.6667 16.7333 22.0667 17.3333 21.3333 17.3333ZM21.3333 12H10.6667C9.93333 12 9.33333 11.4 9.33333 10.6667C9.33333 9.93333 9.93333 9.33333 10.6667 9.33333H21.3333C22.0667 9.33333 22.6667 9.93333 22.6667 10.6667C22.6667 11.4 22.0667 12 21.3333 12Z" fill="#B8B8B8"/>
</svg>
