<svg width="48" height="48" viewBox="0 0 48 48" fill="none" xmlns="http://www.w3.org/2000/svg">
<path d="M24.3 22.9C22.03 22.31 21.3 21.7 21.3 20.75C21.3 19.66 22.31 18.9 24 18.9C25.42 18.9 26.13 19.44 26.39 20.3C26.51 20.7 26.84 21 27.26 21H27.56C28.22 21 28.69 20.35 28.46 19.73C28.04 18.55 27.06 17.57 25.5 17.19V16.5C25.5 15.67 24.83 15 24 15C23.17 15 22.5 15.67 22.5 16.5V17.16C20.56 17.58 19 18.84 19 20.77C19 23.08 20.91 24.23 23.7 24.9C26.2 25.5 26.7 26.38 26.7 27.31C26.7 28 26.21 29.1 24 29.1C22.35 29.1 21.5 28.51 21.17 27.67C21.02 27.28 20.68 27 20.27 27H19.99C19.32 27 18.85 27.68 19.1 28.3C19.67 29.69 21 30.51 22.5 30.83V31.5C22.5 32.33 23.17 33 24 33C24.83 33 25.5 32.33 25.5 31.5V30.85C27.45 30.48 29 29.35 29 27.3C29 24.46 26.57 23.49 24.3 22.9Z" fill="#212121"/>
<rect x="0.5" y="0.5" width="47" height="47" rx="23.5" stroke="#212121"/>
</svg>
