<svg width="32" height="32" viewBox="0 0 32 32" fill="none" xmlns="http://www.w3.org/2000/svg">
<path d="M16.3999 14.5333C13.3733 13.7467 12.3999 12.9333 12.3999 11.6667C12.3999 10.2133 13.7466 9.2 15.9999 9.2C17.8933 9.2 18.8399 9.92 19.1866 11.0667C19.3466 11.6 19.7866 12 20.3466 12H20.7466C21.6266 12 22.2533 11.1333 21.9466 10.3067C21.3866 8.73333 20.0799 7.42667 17.9999 6.92V6C17.9999 4.89333 17.1066 4 15.9999 4C14.8933 4 13.9999 4.89333 13.9999 6V6.88C11.4133 7.44 9.33325 9.12 9.33325 11.6933C9.33325 14.7733 11.8799 16.3067 15.5999 17.2C18.9333 18 19.5999 19.1733 19.5999 20.4133C19.5999 21.3333 18.9466 22.8 15.9999 22.8C13.7999 22.8 12.6666 22.0133 12.2266 20.8933C12.0266 20.3733 11.5733 20 11.0266 20H10.6533C9.75992 20 9.13325 20.9067 9.46659 21.7333C10.2266 23.5867 11.9999 24.68 13.9999 25.1067V26C13.9999 27.1067 14.8933 28 15.9999 28C17.1066 28 17.9999 27.1067 17.9999 26V25.1333C20.5999 24.64 22.6666 23.1333 22.6666 20.4C22.6666 16.6133 19.4266 15.32 16.3999 14.5333Z" fill="#C984EB"/>
</svg>
