<svg width="25" height="24" viewBox="0 0 25 24" fill="none" xmlns="http://www.w3.org/2000/svg">
<path d="M20.5 6.5H18.32C18.43 6.19 18.5 5.85 18.5 5.5C18.5 3.84 17.16 2.5 15.5 2.5C14.45 2.5 13.54 3.04 13 3.85L12.5 4.52L12 3.84C11.46 3.04 10.55 2.5 9.5 2.5C7.84 2.5 6.5 3.84 6.5 5.5C6.5 5.85 6.57 6.19 6.68 6.5H4.5C3.39 6.5 2.51 7.39 2.51 8.5L2.5 19.5C2.5 20.61 3.39 21.5 4.5 21.5H20.5C21.61 21.5 22.5 20.61 22.5 19.5V8.5C22.5 7.39 21.61 6.5 20.5 6.5ZM15.5 4.5C16.05 4.5 16.5 4.95 16.5 5.5C16.5 6.05 16.05 6.5 15.5 6.5C14.95 6.5 14.5 6.05 14.5 5.5C14.5 4.95 14.95 4.5 15.5 4.5ZM9.5 4.5C10.05 4.5 10.5 4.95 10.5 5.5C10.5 6.05 10.05 6.5 9.5 6.5C8.95 6.5 8.5 6.05 8.5 5.5C8.5 4.95 8.95 4.5 9.5 4.5ZM20.5 19.5H4.5V17.5H20.5V19.5ZM20.5 14.5H4.5V9.5C4.5 8.95 4.95 8.5 5.5 8.5H9.58L8.1 10.52C7.77 10.97 7.87 11.6 8.32 11.92C8.76 12.24 9.39 12.14 9.71 11.7L12.5 7.9L15.29 11.7C15.61 12.14 16.24 12.24 16.68 11.92C17.13 11.6 17.23 10.97 16.9 10.52L15.42 8.5H19.5C20.05 8.5 20.5 8.95 20.5 9.5V14.5Z" fill="black"/>
</svg>
