<svg width="16" height="16" viewBox="0 0 16 16" fill="none" xmlns="http://www.w3.org/2000/svg">
<path d="M14.1187 6.425C13.8812 6.18125 13.6375 5.925 13.5437 5.70625C13.45 5.4875 13.4563 5.1625 13.45 4.83125C13.4437 4.225 13.4312 3.53125 12.95 3.05C12.4688 2.56875 11.775 2.55625 11.1687 2.55C10.8375 2.54375 10.5 2.5375 10.2937 2.45625C10.0875 2.375 9.81875 2.11875 9.575 1.88125C9.14375 1.46875 8.65 1 8 1C7.35 1 6.85625 1.46875 6.425 1.88125C6.18125 2.11875 5.925 2.3625 5.70625 2.45625C5.4875 2.55 5.1625 2.54375 4.83125 2.55C4.225 2.55625 3.53125 2.56875 3.05 3.05C2.56875 3.53125 2.55625 4.225 2.55 4.83125C2.54375 5.1625 2.5375 5.5 2.45625 5.70625C2.375 5.9125 2.11875 6.18125 1.88125 6.425C1.46875 6.85625 1 7.35 1 8C1 8.65 1.46875 9.14375 1.88125 9.575C2.11875 9.81875 2.3625 10.075 2.45625 10.2937C2.55 10.5125 2.54375 10.8375 2.55 11.1687C2.55625 11.775 2.56875 12.4688 3.05 12.95C3.53125 13.4312 4.225 13.4437 4.83125 13.45C5.1625 13.4563 5.5 13.4625 5.70625 13.5437C5.9125 13.625 6.18125 13.8812 6.425 14.1187C6.85625 14.5312 7.35 15 8 15C8.65 15 9.14375 14.5312 9.575 14.1187C9.81875 13.8812 10.075 13.6375 10.2937 13.5437C10.5125 13.45 10.8375 13.4563 11.1687 13.45C11.775 13.4437 12.4688 13.4312 12.95 12.95C13.4312 12.4688 13.4437 11.775 13.45 11.1687C13.4563 10.8375 13.4625 10.5 13.5437 10.2937C13.625 10.0875 13.8812 9.81875 14.1187 9.575C14.5312 9.14375 15 8.65 15 8C15 7.35 14.5312 6.85625 14.1187 6.425ZM11.0938 6.8625L7.43125 10.3625C7.33656 10.4516 7.21124 10.5008 7.08125 10.5C6.95317 10.5005 6.82991 10.4512 6.7375 10.3625L4.90625 8.6125C4.85546 8.56819 4.81415 8.51406 4.78481 8.45337C4.75547 8.39269 4.7387 8.3267 4.73552 8.25937C4.73233 8.19204 4.74279 8.12476 4.76627 8.06157C4.78975 7.99839 4.82577 7.9406 4.87215 7.89169C4.91853 7.84278 4.97432 7.80375 5.03617 7.77695C5.09802 7.75015 5.16465 7.73614 5.23205 7.73574C5.29946 7.73535 5.36625 7.7486 5.4284 7.77467C5.49056 7.80075 5.5468 7.83913 5.59375 7.8875L7.08125 9.30625L10.4062 6.1375C10.5035 6.05268 10.6297 6.00872 10.7586 6.01482C10.8875 6.02092 11.009 6.0766 11.0978 6.17022C11.1865 6.26384 11.2357 6.38815 11.235 6.51717C11.2342 6.64618 11.1836 6.76992 11.0938 6.8625Z" fill="#7ACA18"/>
</svg>
