<svg width="20" height="20" viewBox="0 0 20 20" fill="none" xmlns="http://www.w3.org/2000/svg">
<path d="M12.9167 16.6665H4.58341V5.83317C4.58341 5.37484 4.20841 4.99984 3.75008 4.99984C3.29175 4.99984 2.91675 5.37484 2.91675 5.83317V16.6665C2.91675 17.5832 3.66675 18.3332 4.58341 18.3332H12.9167C13.3751 18.3332 13.7501 17.9582 13.7501 17.4998C13.7501 17.0415 13.3751 16.6665 12.9167 16.6665ZM17.0834 13.3332V3.33317C17.0834 2.4165 16.3334 1.6665 15.4167 1.6665H7.91675C7.00008 1.6665 6.25008 2.4165 6.25008 3.33317V13.3332C6.25008 14.2498 7.00008 14.9998 7.91675 14.9998H15.4167C16.3334 14.9998 17.0834 14.2498 17.0834 13.3332ZM15.4167 13.3332H7.91675V3.33317H15.4167V13.3332Z" fill="black"/>
</svg>
