<svg width="33" height="32" viewBox="0 0 33 32" fill="none" xmlns="http://www.w3.org/2000/svg">
<rect x="0.5" width="32" height="32" rx="16" fill="#F4F4F4"/>
<path d="M23.433 8.78C21.4411 7.53544 18.8188 7.83195 16.4799 9.30153C14.1485 7.83195 11.5246 7.53544 9.53511 8.78C6.38802 10.7467 6.00543 15.8118 8.68128 20.0937C10.6537 23.2506 13.7383 25.1003 16.4841 25.0662C19.2298 25.1003 22.3143 23.2506 24.2868 20.0937C26.9595 15.8118 26.5801 10.7467 23.4329 8.78H23.433ZM10.1281 19.1896C9.57635 18.3148 9.16004 17.3617 8.89331 16.3625C8.65635 15.4952 8.56576 14.5944 8.62526 13.6972C8.74473 12.1147 9.38889 10.8824 10.4384 10.2268C11.488 9.57124 12.8756 9.53143 14.3532 10.1179C14.575 10.2065 14.7944 10.3089 15.0121 10.4218C14.1909 11.1705 13.4769 12.0288 12.8902 12.9726C11.2654 15.5721 10.7699 18.4649 11.337 20.7712C10.8848 20.2835 10.4801 19.7539 10.1281 19.1896ZM24.0756 16.3618C23.8085 17.3608 23.3922 18.3139 22.8408 19.1888C22.4886 19.7539 22.0838 20.2846 21.632 20.7737C22.1389 18.7062 21.7944 16.1733 20.5515 13.7979C20.5317 13.7588 20.5039 13.7243 20.4698 13.6966C20.4358 13.6689 20.3963 13.6487 20.354 13.6372C20.3117 13.6257 20.2674 13.6232 20.224 13.6299C20.1807 13.6366 20.1392 13.6523 20.1023 13.6761L16.2274 16.0969C16.192 16.119 16.1614 16.1478 16.1372 16.1817C16.113 16.2156 16.0957 16.254 16.0863 16.2946C16.077 16.3352 16.0757 16.3772 16.0826 16.4183C16.0895 16.4594 16.1045 16.4987 16.1266 16.534L16.6953 17.443C16.7173 17.4783 16.746 17.509 16.7798 17.5331C16.8137 17.5573 16.8519 17.5746 16.8925 17.5839C16.933 17.5933 16.975 17.5946 17.016 17.5877C17.057 17.5808 17.0962 17.5658 17.1315 17.5437L19.6433 15.9742C19.7246 16.2179 19.8058 16.4616 19.8667 16.7054C20.1036 17.5716 20.1945 18.4713 20.1356 19.3675C20.0161 20.9492 19.372 22.1815 18.3224 22.8379C17.7811 23.1689 17.1607 23.3484 16.5263 23.3578H16.4459C15.8114 23.3486 15.191 23.1691 14.6497 22.8379C13.5993 22.1815 12.9551 20.9492 12.8358 19.3675C12.7766 18.4703 12.8672 17.5695 13.1038 16.7021C13.6482 14.6953 14.7737 12.8941 16.3386 11.525C17.0135 10.9326 17.7822 10.4565 18.6133 10.1163C20.0869 9.52973 21.4768 9.56873 22.5272 10.2251C23.5776 10.8815 24.221 12.113 24.3404 13.6955C24.4006 14.5928 24.3111 15.4938 24.0756 16.3617L24.0756 16.3618Z" fill="#1BDBDB"/>
</svg>
