<svg width="33" height="32" viewBox="0 0 33 32" fill="none" xmlns="http://www.w3.org/2000/svg">
<rect x="0.5" width="32" height="32" rx="16" fill="#F4F4F4"/>
<path d="M26.8998 8.90674C25.9998 8.90674 25.2198 9.40674 24.8098 10.1367L24.7598 10.2367L22.8798 13.9367L20.4998 18.6267L22.0598 21.6967L22.1498 21.8667C22.3898 22.2867 22.7498 22.6367 23.1898 22.8467C23.6298 22.6267 23.9898 22.2867 24.2298 21.8667L24.3198 21.6967L28.9898 12.4967L29.0998 12.2767C29.2298 11.9767 29.2998 11.6567 29.2998 11.3067C29.2998 9.97674 28.2298 8.90674 26.8998 8.90674V8.90674ZM12.4898 13.3667L10.9398 10.3067L10.8498 10.1367C10.6098 9.71674 10.2498 9.36674 9.80983 9.15674C9.36983 9.37674 9.00983 9.71674 8.76983 10.1367L8.68983 10.3067L4.01984 19.5067L3.90984 19.7267C3.77984 20.0267 3.70984 20.3467 3.70984 20.6967C3.70984 22.0167 4.77984 23.0967 6.10984 23.0967C7.00984 23.0967 7.78983 22.5967 8.19983 21.8667L8.24983 21.7667L10.1298 18.0667L12.4998 13.3767L12.4898 13.3667Z" fill="#FF5000"/>
<path d="M26.9 8.90674C26 8.90674 25.21 9.40674 24.81 10.1367L24.76 10.2367L22.88 13.9367L20.5 18.6267L22.06 21.6967L22.15 21.8667C22.39 22.2867 22.75 22.6367 23.19 22.8467C23.63 22.6267 23.99 22.2867 24.23 21.8667L24.32 21.6967L28.99 12.4967L29.1 12.2767C29.23 11.9767 29.3 11.6567 29.3 11.3067C29.3 9.97674 28.22 8.90674 26.9 8.90674V8.90674Z" fill="url(#paint0_linear_2173_23661)"/>
<path d="M6.09995 23.0967C6.99995 23.0967 7.78995 22.5967 8.18995 21.8667L8.23995 21.7667L10.1199 18.0667L12.4999 13.3767L10.9399 10.3067L10.8499 10.1367C10.6099 9.71674 10.2499 9.36674 9.80994 9.15674C9.36995 9.37674 9.00995 9.71674 8.76995 10.1367L8.68995 10.3067L4.01995 19.5067L3.89995 19.7367C3.76995 20.0367 3.69995 20.3567 3.69995 20.7067C3.69995 22.0267 4.76995 23.0967 6.09995 23.0967Z" fill="url(#paint1_linear_2173_23661)"/>
<path d="M12.4898 13.3667L10.9398 10.3067L10.8498 10.1367C10.6098 9.71674 10.2498 9.36674 9.80981 9.15674C9.94981 9.08674 10.1098 9.02674 10.2598 8.98674C10.4498 8.93674 10.6598 8.90674 10.8598 8.90674H14.1398C15.0398 8.91674 15.8198 9.40674 16.2298 10.1367L16.2998 10.3067L20.5098 18.6367L22.0598 21.6967L22.1498 21.8667C22.3898 22.2867 22.7498 22.6367 23.1898 22.8467C23.0498 22.9167 22.8898 22.9767 22.7398 23.0167C22.5498 23.0667 22.3398 23.0967 22.1298 23.0967H18.8698C17.9698 23.0867 17.1898 22.5967 16.7798 21.8667L16.6898 21.6967L12.4898 13.3667Z" fill="#FF8C44"/>
<defs>
<linearGradient id="paint0_linear_2173_23661" x1="21.6723" y1="22.1421" x2="31.6555" y2="13.6105" gradientUnits="userSpaceOnUse">
<stop stop-color="#D4202C"/>
<stop offset="0.04166" stop-color="#D82D2B" stop-opacity="0.958"/>
<stop offset="0.176" stop-color="#E25226" stop-opacity="0.824"/>
<stop offset="0.3167" stop-color="#EB7123" stop-opacity="0.683"/>
<stop offset="0.4635" stop-color="#F28920" stop-opacity="0.536"/>
<stop offset="0.6188" stop-color="#F69A1E" stop-opacity="0.381"/>
<stop offset="0.7886" stop-color="#F9A41D" stop-opacity="0.211"/>
<stop offset="1" stop-color="#FAA71D" stop-opacity="0"/>
</linearGradient>
<linearGradient id="paint1_linear_2173_23661" x1="11.3229" y1="9.85931" x2="1.3396" y2="18.3912" gradientUnits="userSpaceOnUse">
<stop stop-color="#D4202C"/>
<stop offset="0.04166" stop-color="#D82D2B" stop-opacity="0.958"/>
<stop offset="0.176" stop-color="#E25226" stop-opacity="0.824"/>
<stop offset="0.3167" stop-color="#EB7123" stop-opacity="0.683"/>
<stop offset="0.4635" stop-color="#F28920" stop-opacity="0.536"/>
<stop offset="0.6188" stop-color="#F69A1E" stop-opacity="0.381"/>
<stop offset="0.7886" stop-color="#F9A41D" stop-opacity="0.211"/>
<stop offset="1" stop-color="#FAA71D" stop-opacity="0"/>
</linearGradient>
</defs>
</svg>
