<svg width="33" height="32" viewBox="0 0 33 32" fill="none" xmlns="http://www.w3.org/2000/svg">
<rect x="0.5" width="32" height="32" rx="16" fill="#F4F4F4"/>
<g clip-path="url(#clip0_2173_23614)">
<path d="M20.8821 21.9304C20.1608 22.6325 19.4424 23.5963 18.7152 24.2924C19.0611 26.1219 18.3841 26.9251 19.2 27.5825C19.4956 27.8175 21.2693 28.3203 22.2892 27.7372C22.3099 26.7883 21.7955 26.5057 21.2457 26.1517C20.687 24.9617 20.888 23.1174 20.8762 21.9304" fill="#2E93EE"/>
<path d="M21.296 28.0049C21.1775 27.4613 20.7954 27.0142 20.2791 26.8149C20.6886 27.0669 20.9307 27.5222 20.9117 28.0049C21.0417 28.0108 21.1689 28.0108 21.296 28.0049Z" fill="#2E578B"/>
<path d="M22.1561 27.8086C22.0408 27.2654 21.6604 26.8177 21.1451 26.6187C21.6713 27.0262 21.8398 27.4635 21.7659 27.9395C21.8998 27.9084 22.0305 27.8646 22.1561 27.8086Z" fill="#2E578B"/>
<path d="M20.0396 12.4586C19.6672 13.003 19.5016 14.1453 22.4637 15.8201C22.4637 15.8201 21.2191 17.9828 20.826 18.3785C20.4328 18.7741 20.1934 19.8272 20.5777 20.3567C20.7766 20.6352 21.0045 20.8915 21.2576 21.1212C21.2576 21.1212 22.239 21.3057 22.6588 21.0677C23.178 20.4899 23.2951 19.6521 22.9544 18.9526C22.9544 18.9526 25.4523 16.3229 25.2927 15.5316C25.1331 14.7403 21.2191 10.7332 20.0396 12.4586Z" fill="#2E93EE"/>
<path d="M22.9395 18.9526C22.9395 18.9526 21.9285 19.7915 21.6743 19.9343C21.8803 19.8716 22.0786 19.7858 22.2655 19.6785C22.2655 19.6785 22.7149 20.2318 22.3867 20.6988C22.3867 20.6988 22.978 20.3508 22.5848 19.5506C22.721 19.3778 22.8455 19.1959 22.9573 19.0062L22.9395 18.9526Z" fill="#2E578B"/>
<path d="M12.5281 18.4648C12.5209 18.6595 12.4616 18.8486 12.3566 19.0122C12.1851 19.2829 12.0876 19.2531 12.5133 19.4852C12.8303 19.6467 13.1721 19.7533 13.5243 19.8005C14.1155 19.8987 13.9825 19.8332 13.7194 19.268C13.6037 19.0135 13.4662 18.7697 13.3085 18.5392C12.7172 17.7211 12.5517 17.7777 12.5281 18.4589" fill="#2E93EE"/>
<path d="M10.4055 18.1822C10.1868 18.5897 10.5208 18.6551 10.9495 18.8069C11.1101 18.8631 11.2768 18.9001 11.4461 18.9169C11.928 18.9705 11.8038 18.8991 11.591 18.5064C11.4628 18.2642 11.3206 18.0298 11.1653 17.8044C10.3169 16.5787 10.7219 17.5872 10.4055 18.1822Z" fill="#2E93EE"/>
<path d="M8.57271 18.0008C8.5799 18.0939 8.5799 18.1874 8.57271 18.2804C8.54315 18.6195 8.50472 18.563 8.92154 18.6017C9.10719 18.6228 9.2946 18.6228 9.48025 18.6017C10.0124 18.5214 9.81725 18.334 9.53937 18.0216C9.44444 17.9128 9.33952 17.8132 9.22602 17.7241C8.17363 16.909 8.56976 17.4832 8.58454 18.0038" fill="#2E93EE"/>
<path d="M15.6231 6.04492C15.6231 6.04492 12.6048 7.60966 12.6314 8.10645C12.658 8.60324 13.4828 8.53482 13.8139 9.20118C13.8139 9.20118 11.9663 10.4863 12.0845 11.0753C12.2028 11.6643 13.3941 11.4501 13.6897 11.9172C13.6897 11.9172 13.3941 13.0892 13.6631 13.5176C13.9321 13.946 13.8907 13.5771 14.2544 14.1126C14.281 14.1245 14.0681 9.75151 15.6231 6.04492Z" fill="#2E93EE"/>
<path d="M14.9905 7.46703C16.0547 8.48441 17.3968 9.12399 18.6206 9.91231C19.4631 10.4191 20.2056 11.0776 20.8111 11.8549C21.5443 12.8425 21.1068 14.0056 21.29 15.2164C21.3462 15.6269 21.3728 16.0434 21.3906 16.4598C21.4221 17.217 21.4004 17.9755 21.3255 18.7296C21.1393 20.5323 21.0476 22.0019 19.7824 23.3524C18.2038 25.0421 16.4656 25.4348 14.4939 23.9652C13.7989 23.5082 13.1659 22.9622 12.6108 22.341C12.2058 21.865 11.7033 21.5616 11.2687 21.1184C10.7169 20.5297 10.0588 20.0522 9.32948 19.7113C8.56679 19.4138 8.0406 19.8184 7.66517 19.9909C7.47302 20.0802 7.20697 20.2527 6.99117 20.0802C6.90803 20.0175 6.87762 19.9061 6.91726 19.8095C7.02977 19.5384 7.20036 19.2956 7.41685 19.0985C8.57862 18.0276 10.4558 18.0038 11.8511 18.7564C12.3802 19.0539 12.9567 19.3662 13.5686 19.4049C14.0002 19.4554 14.4341 19.3313 14.7747 19.0598C15.0389 18.8156 15.213 18.4884 15.2684 18.1317C15.367 17.6355 15.3312 17.1218 15.1649 16.6443C14.9373 15.9541 14.5293 15.3294 14.2633 14.6482C13.3764 12.3308 13.0808 9.6892 14.5205 7.52355L14.7215 7.22607L14.9905 7.46703Z" fill="#2E93EE"/>
<path d="M9.57776 19.8122C10.5947 20.3239 11.6766 21.4692 12.7142 22.7037C14.0711 24.325 17.4441 26.7138 20.2554 22.9596C22.8893 19.4255 21.6507 14.4725 21.4969 13.9103L21.4792 13.8508C21.3905 13.7377 19.0433 10.7213 16.8913 10.281C16.3178 10.7808 16.2054 11.6643 16.9681 13.1874C18.254 15.7487 19.2828 19.482 16.9977 21.7756C16.6574 22.1258 16.2403 22.3907 15.7798 22.5491C14.1568 23.0875 13.2966 22.0969 12.2797 21.139C11.5395 20.4227 10.5943 19.9586 9.57776 19.8122Z" fill="#FFCF00"/>
<path d="M20.5717 22.5074C19.5822 22.3944 18.643 22.0083 17.8579 21.3918C18.4187 22.2149 19.2808 22.7807 20.2553 22.9655C20.3677 22.8168 20.4889 22.6621 20.5717 22.5074Z" fill="#ECA93F"/>
<path d="M16.0015 22.7366C16.3875 23.5602 16.9462 24.2898 17.6392 24.8754C17.8605 24.8231 18.0763 24.7494 18.2836 24.6553C17.3541 24.2519 16.5612 23.5853 16.0015 22.7366Z" fill="#ECA93F"/>
<path d="M12.5487 22.5134L12.7143 22.7097L12.7911 22.8019C12.7384 22.5602 12.7643 22.3078 12.865 22.082C12.7497 22.2182 12.644 22.3624 12.5487 22.5134Z" fill="#ECA93F"/>
<path d="M13.6898 23.6588C13.8081 23.754 13.9293 23.8492 14.0564 23.9563C13.9707 23.5457 13.9322 23.1174 14.0712 22.8794C13.9158 23.1242 13.7879 23.3856 13.6898 23.6588Z" fill="#ECA93F"/>
<path d="M11.4608 21.3265L11.7239 21.5972C11.7196 21.4061 11.7394 21.2152 11.783 21.0291C11.6682 21.1198 11.5605 21.2192 11.4608 21.3265Z" fill="#FF9144"/>
<path d="M18.5852 19.4315C19.6137 19.1192 20.7109 19.1192 21.7394 19.4315C21.766 19.2828 21.7897 19.134 21.8104 18.9912C19.744 18.4974 18.5852 19.4315 18.5852 19.4315Z" fill="#ECA93F"/>
<path d="M21.8724 16.1772C21.8577 15.9987 21.8399 15.8291 21.8222 15.6655C19.6317 15.612 18.5024 16.6829 18.5024 16.6829C19.5412 16.1499 20.7244 15.9724 21.8724 16.1772Z" fill="#ECA93F"/>
<path d="M21.0092 13.2917C20.9235 13.1935 20.8289 13.0864 20.7136 12.9734C18.3871 12.9734 17.7574 14.0622 17.7574 14.0622C18.726 13.4484 19.8703 13.1773 21.0092 13.2917Z" fill="#ECA93F"/>
<path d="M21.8428 15.8409C21.7855 15.312 21.6997 14.7867 21.5856 14.2672L21.4171 14.1631C20.6751 13.6752 17.4057 11.697 16.4479 11.1021C16.4313 11.2483 16.4313 11.396 16.4479 11.5423C17.4529 12.9583 19.7085 15.356 21.8428 15.8409Z" fill="#ECA93F"/>
<path d="M14.4288 21.5645C14.7292 21.12 15.2446 20.8732 15.7768 20.919C17.2726 21.1153 16.7997 22.8972 16.442 23.9444C16.1935 24.6972 16.0502 25.4811 16.0163 26.2736C16.0163 27.3088 16.4094 27.6212 15.9305 28.0258C15.1682 28.5632 14.2459 28.8215 13.3173 28.7576C12.4866 28.5672 12.4659 26.8478 13.7903 26.4105C14.1569 25.6073 14.1421 24.7862 14.1125 23.9295C14.0918 23.3345 14.0416 22.1446 14.4288 21.5496" fill="#2E93EE"/>
<path d="M14.1066 28.7487C14.2248 28.7309 14.3431 28.71 14.4583 28.6833C14.3544 28.1778 14.5099 27.6535 14.8722 27.2881C14.3283 27.6004 14.1509 28.1329 14.1066 28.7487Z" fill="#2E578B"/>
<path d="M13.3055 28.7606C13.182 28.2085 13.3306 27.6304 13.7046 27.2078C13.2447 27.494 12.9617 27.9964 12.9537 28.5405C13.0447 28.6497 13.168 28.7268 13.3055 28.7606Z" fill="#2E578B"/>
<path d="M14.0741 19.3869C14.0741 19.3869 13.9026 20.3834 14.5766 20.7166C15.1442 21.0141 15.8418 21.0141 16.1907 20.5887C16.6725 19.9937 17.3731 18.8038 15.4546 17.6347C14.2721 16.9118 14.1982 19.366 14.1982 19.366L14.0741 19.3869Z" fill="#2E578B"/>
<path d="M14.2396 14.6095C14.4909 15.1599 14.7185 15.5853 14.7303 15.6239C14.7422 15.6626 16.2912 13.6754 16.0015 13.3542C15.7118 13.0329 14.485 14.1782 14.2396 14.6095Z" fill="#2E578B"/>
<path d="M15.7591 11.7596C17.4352 13.3868 13.9558 15.5405 13.9558 15.5405C14.3342 15.7815 14.8131 16.6055 15.1708 17.2064C15.5285 17.8073 15.6704 17.7092 16.1079 18.2089C16.5454 18.7087 15.2979 19.4554 15.2979 19.4554C15.2979 19.4554 11.112 17.1797 11.1238 15.722C11.1238 15.5405 12.0964 13.9193 13.0779 12.9138C13.5715 12.4081 14.958 10.9832 15.7591 11.7596Z" fill="#2E93EE"/>
<path d="M14.1332 18.6463C14.1332 18.6463 13.8376 20.1962 14.7422 20.6483C14.7422 20.6483 15.4901 20.6959 15.8685 20.4223C15.8685 20.4223 16.8115 18.9646 16.1079 18.209C15.4044 17.4534 14.1332 18.6463 14.1332 18.6463Z" fill="#2E93EE"/>
<path d="M14.1155 18.7563C14.1155 18.7563 15.3245 19.4078 15.5344 19.4673C15.3239 19.4965 15.1096 19.4645 14.9166 19.3751C14.9166 19.3751 14.621 19.9701 14.9668 20.3389C14.9668 20.3389 14.4111 20.2408 14.6091 19.3067L14.1036 18.7831L14.1155 18.7563Z" fill="#2E578B"/>
<path d="M15.2004 6.99989C15.2004 6.99989 15.8301 3.26354 17.3703 3.20107C18.3842 3.15645 18.8956 4.45644 18.8956 4.45644C19.5167 4.4592 20.124 4.64088 20.6457 4.98C20.6457 4.98 20.9413 4.46536 21.4113 4.63195C21.8813 4.79854 22.4164 5.88136 22.2242 7.66029C22.6893 7.73217 23.0964 8.01367 23.3298 8.42481C23.2053 8.6047 23.0151 8.72769 22.8007 8.76691C22.4814 8.79369 21.1039 8.28797 20.7314 8.61817C20.352 8.88536 20.1597 9.34876 20.2377 9.80809C20.2377 9.80809 18.7153 9.6534 18.0383 8.78179C17.3614 7.91017 16.779 6.22049 15.2004 6.99989Z" fill="#2E93EE"/>
<path d="M20.4417 7.2707C20.4417 7.2707 20.82 6.01533 21.5472 5.66431C21.5731 6.27196 21.6392 6.87719 21.7453 7.47596C21.3151 7.38202 20.8798 7.31349 20.4417 7.2707Z" fill="#F1F1F2"/>
<path d="M17.1485 4.69751C17.1485 4.69751 18.0856 5.15265 18.7153 7.10709C18.0139 6.98696 17.3042 6.92329 16.5928 6.91671C16.9415 6.22843 17.1314 5.46988 17.1485 4.69751Z" fill="#F1F1F2"/>
<path d="M17.5328 5.56592C17.7604 5.56592 17.9466 5.82175 17.9466 6.14005C17.9466 6.45836 17.7604 6.71121 17.5328 6.71121C17.3051 6.71121 17.1189 6.45538 17.1189 6.14005C17.1189 5.82472 17.3022 5.56592 17.5328 5.56592Z" fill="#2E578B"/>
<path d="M21.0329 7.0891C21.2132 7.0891 21.3581 6.89574 21.3581 6.65478C21.3581 6.41382 21.2132 6.22046 21.0329 6.22046C20.9983 6.2224 20.9643 6.23045 20.9324 6.24426C20.8331 6.35997 20.7577 6.49448 20.7107 6.6399C20.7092 6.64977 20.7092 6.65979 20.7107 6.66965C20.7077 6.89574 20.8526 7.0891 21.0329 7.0891Z" fill="#2E578B"/>
<path d="M17.2371 7.93092C17.2371 7.93092 16.1138 7.03848 15.5433 7.67509C14.8634 8.44259 15.5433 9.63548 15.5433 9.63548C15.5433 9.63548 15.626 9.12381 15.8803 8.95425C15.8803 8.95425 15.9808 10.5696 18.594 12.3663C21.2072 14.1631 22.3454 13.9668 22.9159 13.8151C23.4864 13.6634 24.0658 13.2528 23.8471 12.7917C23.6283 12.3306 22.1532 11.0783 22.1532 11.0783C22.1532 11.0783 21.5945 11.1467 20.4564 10.7451C19.3183 10.3435 17.7959 9.55516 16.8144 8.18675C16.9596 8.10888 17.1007 8.02349 17.2371 7.93092Z" fill="#FF9144"/>
<path d="M16.5809 10.0311C18.0444 9.67786 19.586 10.0957 20.6752 11.1407L20.3796 10.9801C20.3796 10.9801 21.7217 10.9147 21.9079 11.1021C22.7043 11.6436 23.2149 12.5182 23.2973 13.4819C23.3357 13.943 22.2508 14.2048 19.8327 12.994C18.331 12.2325 16.5809 10.0311 16.5809 10.0311Z" fill="#FF6B17"/>
<path d="M19.5193 10.3376L19.5755 10.3674L19.5193 10.3376Z" fill="#FF9144"/>
<path d="M22.0439 11.0694C22.0439 11.0694 21.7187 12.4111 21.2161 12.2594C21.0476 12.2088 21.1156 11.828 21.0476 11.5662C20.9797 11.3045 20.7845 10.8047 20.7845 10.8047L22.0439 11.0694Z" fill="#EBEEF2"/>
<path d="M24.53 10.5606C24.53 10.5606 24.4265 11.938 23.9063 11.8725C23.7319 11.8517 23.7378 11.465 23.6284 11.2181C23.519 10.9711 23.25 10.5071 23.25 10.5071L24.53 10.5606Z" fill="#EBEEF2"/>
<path d="M25.0828 9.35302C25.0178 8.38324 23.7466 7.95785 22.8125 8.63907C22.0498 8.46951 21.2043 7.95785 20.4476 8.72534C20.1381 8.98561 20.0422 9.42318 20.214 9.79032C20.214 9.79032 18.6295 9.53449 18.0826 8.72237C17.5358 7.91025 16.8204 6.82147 16.0547 6.74413C15.6468 6.70546 14.958 6.64596 14.5589 7.42833C14.1598 8.2107 13.9677 9.62373 16.9238 11.8608C19.88 14.0978 21.1748 14.7017 21.8192 14.6988C22.6381 14.6988 22.6883 14.4013 23.6313 14.2585C24.1132 14.19 24.4797 13.366 23.9506 12.6521C23.5085 12.0924 22.9722 11.6151 22.3661 11.242C22.3365 11.2718 23.5131 12.2207 23.7318 12.6818C23.9506 13.1429 23.3032 13.4344 22.7356 13.5743C22.168 13.7141 21.4379 13.8717 18.8276 12.0869C16.2173 10.302 15.9365 8.49628 15.9365 8.49628C15.6054 8.44571 15.567 9.16859 15.567 9.16859C15.567 9.16859 15.1856 8.33267 15.697 7.8329C16.3149 7.23795 16.9534 7.97272 16.9534 7.97272H16.915C16.5277 7.78531 16.4745 8.12146 16.4745 8.12146C17.5038 9.45495 18.8639 10.4922 20.418 11.129C21.5561 11.5306 22.1533 11.0784 22.1533 11.0784C22.6937 11.0745 23.2332 11.0308 23.7673 10.9475C24.1753 10.8374 25.1744 10.6649 25.0828 9.35302Z" fill="#FFCF00"/>
<path d="M21.296 9.24891C21.562 9.16562 21.766 9.52557 21.4172 9.68026C21.3669 9.81413 21.4467 9.95989 21.6596 10.0105C21.4506 10.1115 21.1998 10.0229 21.0994 9.81264C20.999 9.60234 21.087 9.34995 21.296 9.24891Z" fill="#ECA93F"/>
<path d="M24.2935 9.13884C24.0747 9.06744 23.9062 9.36492 24.1959 9.49581C24.2343 9.60588 24.1693 9.72487 23.9919 9.76652C24.5536 9.88254 24.5832 9.24296 24.2876 9.13884" fill="#ECA93F"/>
</g>
<defs>
<clipPath id="clip0_2173_23614">
<rect width="18.4" height="25.6" fill="white" transform="translate(6.90002 3.19995)"/>
</clipPath>
</defs>
</svg>
