<svg width="24" height="24" viewBox="0 0 24 24" fill="none" xmlns="http://www.w3.org/2000/svg">
<path d="M17.3301 17.86C16.8601 17.62 16.3001 17.81 16.0201 18.26C15.6601 18.86 15.0501 19.25 14.1201 19.25H9.22012C10.0501 18.25 10.7201 16.91 10.7201 15.25C10.7201 14.9 10.6901 14.56 10.6401 14.25H13.1201C13.6701 14.25 14.1201 13.8 14.1201 13.25C14.1201 12.7 13.6701 12.25 13.1201 12.25H9.94012C9.12012 10.67 8.12012 9.85 8.12012 8.25C8.12012 6.32 9.69012 4.75 11.6201 4.75C12.8201 4.75 13.8801 5.36 14.5101 6.28C14.7801 6.68 15.2801 6.87 15.7301 6.68C16.3301 6.43 16.5301 5.69 16.1601 5.15C15.1701 3.7 13.5001 2.75 11.6201 2.75C8.58012 2.75 6.12012 5.21 6.12012 8.25C6.12012 10.03 6.91012 11.15 7.61012 12.25H7.12012C6.57012 12.25 6.12012 12.7 6.12012 13.25C6.12012 13.8 6.57012 14.25 7.12012 14.25H8.59012C8.67012 14.56 8.72012 14.89 8.72012 15.25C8.72012 17.15 7.43012 18.36 6.66012 18.91C6.32012 19.15 6.12012 19.54 6.12012 19.96C6.12012 20.67 6.70012 21.25 7.41012 21.25H14.1201C15.6701 21.25 17.0701 20.49 17.7501 19.25C18.0301 18.74 17.8401 18.11 17.3301 17.86Z" fill="#FF3D50"/>
</svg>
