<svg width="24" height="24" viewBox="0 0 24 24" fill="none" xmlns="http://www.w3.org/2000/svg">
<path d="M11.9998 21C11.4498 21 10.9998 20.55 10.9998 20V14H6.99976C6.44976 14 5.99976 13.55 5.99976 13C5.99976 12.45 6.44976 12 6.99976 12H10.7198L5.97976 4.54C5.54976 3.87 6.02976 3 6.81976 3C7.15976 3 7.47976 3.17 7.65976 3.46L11.9998 10.29L16.3398 3.46C16.5198 3.17 16.8398 3 17.1798 3C17.9698 3 18.4498 3.87 18.0198 4.54L13.2798 12H16.9998C17.5498 12 17.9998 12.45 17.9998 13C17.9998 13.55 17.5498 14 16.9998 14H12.9998V20C12.9998 20.55 12.5498 21 11.9998 21Z" fill="#B558E4"/>
</svg>
