<svg width="24" height="24" viewBox="0 0 24 24" fill="none" xmlns="http://www.w3.org/2000/svg">
<path d="M9.46459 17.0709L8.33722 19.3257C8.2621 19.4772 8.13783 19.5987 7.98472 19.6703C7.83161 19.742 7.65872 19.7596 7.4943 19.7203C5.1938 19.1579 3.2106 18.1773 1.76617 16.9218C1.65586 16.827 1.57531 16.7023 1.53419 16.5628C1.49308 16.4232 1.49316 16.2748 1.53442 16.1353L4.71947 5.51843C4.75162 5.41137 4.80723 5.31283 4.88226 5.22997C4.95729 5.14712 5.04985 5.08203 5.1532 5.03945C6.05302 4.67104 6.98366 4.38295 7.93424 4.17856C8.11535 4.13887 8.30475 4.16752 8.46602 4.259C8.62729 4.35048 8.74905 4.49834 8.80792 4.67416L9.55541 6.91663V6.91661C11.1775 6.69478 12.8223 6.69478 14.4445 6.91661V6.91663L15.192 4.67416C15.2508 4.49834 15.3726 4.35048 15.5339 4.259C15.6951 4.16752 15.8845 4.13887 16.0656 4.17856C17.0162 4.38295 17.9469 4.67104 18.8467 5.03945C18.95 5.08203 19.0426 5.14712 19.1176 5.22998C19.1927 5.31283 19.2483 5.41137 19.2804 5.51843L22.4655 16.1353C22.5067 16.2748 22.5068 16.4232 22.4657 16.5627C22.4246 16.7023 22.344 16.827 22.2337 16.9218C20.7893 18.1773 18.8061 19.1579 16.5056 19.7203C16.3412 19.7596 16.1683 19.742 16.0152 19.6703C15.8621 19.5987 15.7378 19.4772 15.6627 19.3257L14.5353 17.071C13.6956 17.1913 12.8483 17.2512 11.9999 17.2502C11.1516 17.2512 10.3043 17.1913 9.46458 17.071L9.46459 17.0709Z" fill="#5957E5"/>
<path d="M9 14.625C9.62132 14.625 10.125 14.1213 10.125 13.5C10.125 12.8787 9.62132 12.375 9 12.375C8.37868 12.375 7.875 12.8787 7.875 13.5C7.875 14.1213 8.37868 14.625 9 14.625Z" fill="#212121"/>
<path d="M15 14.625C15.6213 14.625 16.125 14.1213 16.125 13.5C16.125 12.8787 15.6213 12.375 15 12.375C14.3787 12.375 13.875 12.8787 13.875 13.5C13.875 14.1213 14.3787 14.625 15 14.625Z" fill="#212121"/>
<path d="M6.9751 7.49992C8.60105 6.991 10.2962 6.73798 11.9999 6.74992C13.7036 6.73798 15.3988 6.99099 17.0247 7.49989" stroke="#5957E5" stroke-width="2" stroke-linecap="round" stroke-linejoin="round"/>
<path d="M17.0246 16.5C15.3987 17.0089 13.7035 17.2619 11.9999 17.25C10.2962 17.2619 8.60103 17.0089 6.9751 16.5" stroke="#5957E5" stroke-width="2" stroke-linecap="round" stroke-linejoin="round"/>
<path d="M14.5352 17.071L15.6625 19.3257C15.7376 19.4772 15.8619 19.5987 16.015 19.6703C16.1681 19.742 16.341 19.7596 16.5054 19.7203C18.806 19.1579 20.7892 18.1773 22.2336 16.9218C22.3439 16.827 22.4245 16.7023 22.4656 16.5627C22.5067 16.4232 22.5066 16.2748 22.4653 16.1353L19.2803 5.51843C19.2481 5.41137 19.1925 5.31283 19.1175 5.22998C19.0425 5.14712 18.9499 5.08203 18.8466 5.03945C17.9467 4.67104 17.0161 4.38295 16.0655 4.17856C15.8844 4.13887 15.695 4.16752 15.5337 4.259C15.3725 4.35048 15.2507 4.49834 15.1918 4.67416L14.4443 6.91663" stroke="#5957E5" stroke-width="2" stroke-linecap="round" stroke-linejoin="round"/>
<path d="M9.46459 17.0709L8.33722 19.3257C8.2621 19.4772 8.13783 19.5987 7.98472 19.6703C7.83161 19.742 7.65872 19.7596 7.4943 19.7203C5.1938 19.1579 3.2106 18.1773 1.76617 16.9218C1.65586 16.827 1.57531 16.7023 1.53419 16.5628C1.49308 16.4232 1.49316 16.2748 1.53442 16.1353L4.71947 5.51843C4.75162 5.41137 4.80723 5.31283 4.88226 5.22997C4.9573 5.14712 5.04985 5.08203 5.1532 5.03945C6.05302 4.67104 6.98366 4.38295 7.93424 4.17856C8.11535 4.13887 8.30475 4.16752 8.46602 4.259C8.62729 4.35048 8.74906 4.49834 8.80792 4.67416L9.55541 6.91663" stroke="#5957E5" stroke-width="2" stroke-linecap="round" stroke-linejoin="round"/>
</svg>
