<svg width="64" height="64" viewBox="0 0 64 64" fill="none" xmlns="http://www.w3.org/2000/svg">
<rect x="17" y="31" width="30" height="30" rx="15" fill="#F4F4F4"/>
<g clip-path="url(#clip0_1170_21114)">
<path d="M36.1081 51.5596C35.4319 52.2177 34.7584 53.1213 34.0767 53.7739C34.4009 55.4891 33.7663 56.2421 34.5312 56.8584C34.8083 57.0787 36.4711 57.5501 37.4273 57.0034C37.4467 56.1138 36.9644 55.8489 36.449 55.517C35.9252 54.4014 36.1136 52.6723 36.1025 51.5596" fill="#2E93EE"/>
<path d="M36.4961 57.2547C36.385 56.7452 36.0268 56.326 35.5427 56.1392C35.9267 56.3754 36.1536 56.8022 36.1358 57.2547C36.2577 57.2603 36.3769 57.2603 36.4961 57.2547Z" fill="#2E578B"/>
<path d="M37.3025 57.0706C37.1944 56.5614 36.8378 56.1417 36.3547 55.9551C36.848 56.3372 37.006 56.7471 36.9367 57.1933C37.0623 57.1642 37.1848 57.1232 37.3025 57.0706Z" fill="#2E578B"/>
<path d="M35.3182 42.6802C34.969 43.1906 34.8138 44.2615 37.5908 45.8316C37.5908 45.8316 36.424 47.8591 36.0554 48.2301C35.6868 48.601 35.4623 49.5882 35.8226 50.0847C36.0091 50.3457 36.2228 50.586 36.46 50.8014C36.46 50.8014 37.3801 50.9743 37.7737 50.7512C38.2605 50.2095 38.3703 49.4241 38.0508 48.7683C38.0508 48.7683 40.3926 46.303 40.243 45.5611C40.0933 44.8193 36.424 41.0627 35.3182 42.6802Z" fill="#2E93EE"/>
<path d="M38.037 48.7681C38.037 48.7681 37.0892 49.5545 36.8508 49.6884C37.0439 49.6296 37.2299 49.5491 37.4051 49.4486C37.4051 49.4486 37.8264 49.9673 37.5187 50.4051C37.5187 50.4051 38.073 50.0788 37.7044 49.3286C37.8321 49.1666 37.9488 48.9961 38.0536 48.8183L38.037 48.7681Z" fill="#2E578B"/>
<path d="M28.2763 48.311C28.2695 48.4935 28.214 48.6707 28.1155 48.8241C27.9548 49.0779 27.8633 49.05 28.2624 49.2676C28.5596 49.419 28.88 49.519 29.2102 49.5632C29.7645 49.6552 29.6398 49.5939 29.3931 49.064C29.2847 48.8254 29.1558 48.5968 29.0079 48.3807C28.4536 47.6138 28.2984 47.6667 28.2763 48.3054" fill="#2E93EE"/>
<path d="M26.2866 48.0459C26.0815 48.428 26.3947 48.4893 26.7965 48.6316C26.9472 48.6843 27.1034 48.7189 27.2621 48.7348C27.7139 48.785 27.5975 48.718 27.3979 48.3499C27.2778 48.1229 27.1445 47.9031 26.9989 47.6917C26.2035 46.5427 26.5831 47.4881 26.2866 48.0459Z" fill="#2E93EE"/>
<path d="M24.5683 47.8758C24.575 47.963 24.575 48.0507 24.5683 48.1379C24.5405 48.4558 24.5045 48.4029 24.8953 48.4391C25.0693 48.4588 25.245 48.4588 25.4191 48.4391C25.9179 48.3638 25.735 48.1881 25.4745 47.8953C25.3855 47.7932 25.2871 47.6999 25.1807 47.6164C24.1941 46.8522 24.5655 47.3905 24.5793 47.8785" fill="#2E93EE"/>
<path d="M31.1779 36.667C31.1779 36.667 28.3483 38.1339 28.3733 38.5997C28.3982 39.0654 29.1714 39.0013 29.4818 39.626C29.4818 39.626 27.7497 40.8308 27.8606 41.383C27.9714 41.9352 29.0883 41.7344 29.3654 42.1722C29.3654 42.1722 29.0883 43.271 29.3405 43.6726C29.5927 44.0742 29.5539 43.7284 29.8948 44.2305C29.9197 44.2416 29.7202 40.1419 31.1779 36.667Z" fill="#2E93EE"/>
<path d="M30.5848 38.0003C31.5825 38.9541 32.8407 39.5537 33.9881 40.2928C34.7778 40.7679 35.474 41.3852 36.0417 42.1139C36.729 43.0398 36.3188 44.1302 36.4906 45.2653C36.5433 45.6502 36.5682 46.0406 36.5849 46.4311C36.6145 47.1409 36.5941 47.852 36.5239 48.559C36.3493 50.249 36.2634 51.6267 35.0772 52.8929C33.5973 54.477 31.9677 54.8451 30.1192 53.4674C29.4677 53.0389 28.8743 52.527 28.3539 51.9447C27.9742 51.4984 27.503 51.214 27.0956 50.7984C26.5783 50.2466 25.9613 49.7989 25.2776 49.4793C24.5626 49.2004 24.0693 49.5797 23.7173 49.7415C23.5372 49.8251 23.2878 49.9869 23.0854 49.8251C23.0075 49.7663 22.979 49.6619 23.0162 49.5713C23.1216 49.3172 23.2816 49.0896 23.4845 48.9048C24.5737 47.9008 26.3335 47.8785 27.6416 48.5841C28.1377 48.863 28.6781 49.1558 29.2518 49.192C29.6564 49.2394 30.0632 49.1231 30.3825 48.8685C30.6302 48.6396 30.7934 48.3328 30.8453 47.9984C30.9378 47.5332 30.9043 47.0516 30.7483 46.604C30.5349 45.957 30.1525 45.3713 29.9031 44.7326C29.0716 42.5601 28.7945 40.0836 30.1442 38.0533L30.3326 37.7744L30.5848 38.0003Z" fill="#2E93EE"/>
<path d="M25.5105 49.5742C26.4639 50.0539 27.4782 51.1276 28.4509 52.285C29.723 53.8049 32.8852 56.0444 35.5207 52.5248C37.9901 49.2117 36.8288 44.5682 36.6847 44.0411L36.6681 43.9853C36.585 43.8793 34.3845 41.0514 32.3669 40.6387C31.8293 41.1072 31.7239 41.9355 32.439 43.3634C33.6445 45.7646 34.609 49.2646 32.4667 51.4149C32.1477 51.7431 31.7566 51.9915 31.3249 52.14C29.8034 52.6448 28.9969 51.7161 28.0435 50.818C27.3496 50.1465 26.4635 49.7114 25.5105 49.5742Z" fill="#FFCF00"/>
<path d="M35.8171 52.101C34.8894 51.9951 34.009 51.6331 33.2729 51.0552C33.7987 51.8268 34.6069 52.3573 35.5205 52.5305C35.6259 52.391 35.7395 52.246 35.8171 52.101Z" fill="#ECA93F"/>
<path d="M31.5327 52.3154C31.8946 53.0875 32.4184 53.7716 33.0681 54.3206C33.2756 54.2716 33.4779 54.2025 33.6722 54.1143C32.8008 53.7361 32.0575 53.1111 31.5327 52.3154Z" fill="#ECA93F"/>
<path d="M28.2957 52.1065L28.4509 52.2906L28.5229 52.3771C28.4735 52.1504 28.4978 51.9138 28.5922 51.7021C28.4841 51.8298 28.385 51.965 28.2957 52.1065Z" fill="#ECA93F"/>
<path d="M29.3655 53.1799C29.4763 53.2691 29.59 53.3584 29.7091 53.4588C29.6288 53.0739 29.5927 52.6723 29.723 52.4492C29.5773 52.6787 29.4574 52.9238 29.3655 53.1799Z" fill="#ECA93F"/>
<path d="M27.2759 50.9937L27.5225 51.2475C27.5185 51.0683 27.5371 50.8893 27.578 50.7148C27.4703 50.7999 27.3694 50.8932 27.2759 50.9937Z" fill="#FF9144"/>
<path d="M33.9548 49.2173C34.9191 48.9245 35.9477 48.9245 36.9119 49.2173C36.9368 49.0778 36.959 48.9384 36.9784 48.8045C35.0412 48.3415 33.9548 49.2173 33.9548 49.2173Z" fill="#ECA93F"/>
<path d="M37.0366 46.1661C37.0227 45.9987 37.0061 45.8398 36.9895 45.6864C34.9359 45.6362 33.8772 46.6402 33.8772 46.6402C34.851 46.1405 35.9602 45.9741 37.0366 46.1661Z" fill="#ECA93F"/>
<path d="M36.2275 43.461C36.1471 43.369 36.0584 43.2686 35.9503 43.1626C33.7693 43.1626 33.179 44.1833 33.179 44.1833C34.087 43.6079 35.1597 43.3538 36.2275 43.461Z" fill="#ECA93F"/>
<path d="M37.0089 45.8509C36.9552 45.3551 36.8747 44.8626 36.7678 44.3756L36.6098 44.278C35.9142 43.8206 32.849 41.966 31.9511 41.4082C31.9356 41.5453 31.9356 41.6838 31.9511 41.821C32.8934 43.1485 35.008 45.3963 37.0089 45.8509Z" fill="#ECA93F"/>
<path d="M30.0583 51.2167C30.3399 50.8 30.8231 50.5686 31.3221 50.6115C32.7244 50.7956 32.281 52.4661 31.9456 53.4478C31.7127 54.1536 31.5784 54.8885 31.5465 55.6315C31.5465 56.602 31.9151 56.8948 31.4662 57.2741C30.7515 57.7779 29.8868 58.0201 29.0163 57.9602C28.2375 57.7817 28.2181 56.1697 29.4597 55.7598C29.8033 55.0068 29.7895 54.237 29.7618 53.4339C29.7424 52.8761 29.6952 51.7605 30.0583 51.2028" fill="#2E93EE"/>
<path d="M29.7561 57.9519C29.867 57.9351 29.9778 57.9156 30.0859 57.8905C29.9884 57.4166 30.1342 56.9251 30.4739 56.5825C29.964 56.8754 29.7977 57.3746 29.7561 57.9519Z" fill="#2E578B"/>
<path d="M29.0051 57.9631C28.8893 57.4455 29.0286 56.9035 29.3792 56.5073C28.9481 56.7756 28.6827 57.2467 28.6753 57.7567C28.7606 57.8591 28.8761 57.9314 29.0051 57.9631Z" fill="#2E578B"/>
<path d="M29.7258 49.1753C29.7258 49.1753 29.5651 50.1095 30.1969 50.4219C30.729 50.7008 31.3831 50.7008 31.7101 50.302C32.1618 49.7442 32.8187 48.6286 31.02 47.5326C29.9115 46.8549 29.8422 49.1557 29.8422 49.1557L29.7258 49.1753Z" fill="#2E578B"/>
<path d="M29.8809 44.6963C30.1164 45.2122 30.3298 45.611 30.3409 45.6473C30.352 45.6835 31.8042 43.8206 31.5326 43.5194C31.261 43.2182 30.1109 44.2919 29.8809 44.6963Z" fill="#2E578B"/>
<path d="M31.3053 42.0247C32.8767 43.5502 29.6148 45.5693 29.6148 45.5693C29.9695 45.7952 30.4185 46.5678 30.7538 47.1311C31.0892 47.6945 31.2222 47.6024 31.6323 48.071C32.0425 48.5395 30.873 49.2395 30.873 49.2395C30.873 49.2395 26.9487 47.106 26.9597 45.7395C26.9597 45.5693 27.8716 44.0494 28.7917 43.1068C29.2545 42.6327 30.5543 41.2968 31.3053 42.0247Z" fill="#2E93EE"/>
<path d="M29.7811 48.481C29.7811 48.481 29.504 49.934 30.352 50.3579C30.352 50.3579 31.0532 50.4025 31.4079 50.1459C31.4079 50.1459 32.292 48.7794 31.6324 48.071C30.9728 47.3627 29.7811 48.481 29.7811 48.481Z" fill="#2E93EE"/>
<path d="M29.7645 48.584C29.7645 48.584 30.898 49.1947 31.0948 49.2505C30.8975 49.2779 30.6965 49.2479 30.5155 49.1641C30.5155 49.1641 30.2384 49.7218 30.5627 50.0677C30.5627 50.0677 30.0416 49.9756 30.2273 49.0999L29.7534 48.6091L29.7645 48.584Z" fill="#2E578B"/>
<path d="M30.7815 37.5624C30.7815 37.5624 31.3718 34.0596 32.8157 34.0011C33.7663 33.9592 34.2457 35.178 34.2457 35.178C34.828 35.1805 35.3973 35.3509 35.8864 35.6688C35.8864 35.6688 36.1635 35.1863 36.6042 35.3425C37.0448 35.4987 37.5464 36.5138 37.3663 38.1816C37.8023 38.249 38.184 38.5129 38.4028 38.8983C38.286 39.067 38.1077 39.1823 37.9067 39.219C37.6074 39.2441 36.316 38.77 35.9668 39.0796C35.6111 39.3301 35.4308 39.7645 35.5039 40.1951C35.5039 40.1951 34.0767 40.0501 33.442 39.233C32.8074 38.4158 32.2614 36.8318 30.7815 37.5624Z" fill="#2E93EE"/>
<path d="M35.6953 37.816C35.6953 37.816 36.0501 36.6391 36.7318 36.3101C36.756 36.8797 36.818 37.4471 36.9175 38.0085C36.5142 37.9204 36.1061 37.8562 35.6953 37.816Z" fill="#F1F1F2"/>
<path d="M32.6079 35.4038C32.6079 35.4038 33.4865 35.8305 34.0768 37.6628C33.4193 37.5502 32.7539 37.4905 32.0869 37.4843C32.4138 36.8391 32.5919 36.1279 32.6079 35.4038Z" fill="#F1F1F2"/>
<path d="M32.9683 36.2183C33.1817 36.2183 33.3563 36.4581 33.3563 36.7565C33.3563 37.0549 33.1817 37.292 32.9683 37.292C32.7549 37.292 32.5803 37.0521 32.5803 36.7565C32.5803 36.4609 32.7521 36.2183 32.9683 36.2183Z" fill="#2E578B"/>
<path d="M36.2496 37.6459C36.4187 37.6459 36.5545 37.4646 36.5545 37.2387C36.5545 37.0128 36.4187 36.8315 36.2496 36.8315C36.2172 36.8334 36.1853 36.8409 36.1554 36.8539C36.0623 36.9623 35.9916 37.0884 35.9476 37.2248C35.9462 37.234 35.9462 37.2434 35.9476 37.2527C35.9448 37.4646 36.0806 37.6459 36.2496 37.6459Z" fill="#2E578B"/>
<path d="M32.6911 38.4355C32.6911 38.4355 31.638 37.5989 31.1031 38.1957C30.4657 38.9152 31.1031 40.0336 31.1031 40.0336C31.1031 40.0336 31.1807 39.5539 31.4191 39.3949C31.4191 39.3949 31.5133 40.9093 33.9632 42.5937C36.4131 44.2782 37.4801 44.0941 38.015 43.9519C38.5498 43.8097 39.093 43.4248 38.8879 42.9925C38.6829 42.5603 37.2999 41.3862 37.2999 41.3862C37.2999 41.3862 36.7761 41.4503 35.7092 41.0738C34.6422 40.6973 33.2149 39.9583 32.2948 38.6754C32.4309 38.6024 32.5632 38.5223 32.6911 38.4355Z" fill="#FF9144"/>
<path d="M32.0759 40.4045C33.4479 40.0733 34.8932 40.465 35.9143 41.4448L35.6372 41.2942C35.6372 41.2942 36.8954 41.2328 37.07 41.4085C37.8166 41.9163 38.2953 42.7362 38.3725 43.6396C38.4085 44.0719 37.3914 44.3173 35.1245 43.1823C33.7166 42.4683 32.0759 40.4045 32.0759 40.4045Z" fill="#FF6B17"/>
<path d="M34.8306 40.6914L34.8832 40.7193L34.8306 40.6914Z" fill="#FF9144"/>
<path d="M37.1975 41.3776C37.1975 41.3776 36.8926 42.6354 36.4215 42.4932C36.2635 42.4457 36.3272 42.0888 36.2635 41.8433C36.1998 41.5979 36.0168 41.1294 36.0168 41.1294L37.1975 41.3776Z" fill="#EBEEF2"/>
<path d="M39.5281 40.9008C39.5281 40.9008 39.4311 42.192 38.9434 42.1307C38.7799 42.1112 38.7854 41.7486 38.6829 41.5171C38.5803 41.2856 38.3281 40.8506 38.3281 40.8506L39.5281 40.9008Z" fill="#EBEEF2"/>
<path d="M40.0463 39.7683C39.9853 38.8592 38.7936 38.4604 37.9179 39.099C37.2029 38.94 36.4102 38.4604 35.7008 39.1799C35.4107 39.4239 35.3207 39.8341 35.4818 40.1783C35.4818 40.1783 33.9964 39.9385 33.4837 39.1771C32.971 38.4157 32.3003 37.395 31.5825 37.3225C31.2 37.2862 30.5543 37.2305 30.1802 37.9639C29.806 38.6974 29.6259 40.0221 32.3973 42.1194C35.1687 44.2166 36.3825 44.7827 36.9867 44.78C37.7544 44.78 37.8015 44.501 38.6856 44.3672C39.1373 44.303 39.4809 43.5305 38.9849 42.8612C38.5704 42.3365 38.0676 41.8891 37.4994 41.5393C37.4717 41.5672 38.5747 42.4568 38.7798 42.8891C38.9849 43.3214 38.3779 43.5947 37.8458 43.7257C37.3137 43.8568 36.6292 44.0046 34.1821 42.3313C31.7349 40.658 31.4716 38.9651 31.4716 38.9651C31.1612 38.9177 31.1252 39.5954 31.1252 39.5954C31.1252 39.5954 30.7677 38.8118 31.2472 38.3432C31.8264 37.7855 32.425 38.4743 32.425 38.4743H32.389C32.0259 38.2986 31.976 38.6137 31.976 38.6137C32.941 39.8639 34.2161 40.8363 35.6731 41.4333C36.74 41.8098 37.2999 41.3859 37.2999 41.3859C37.8066 41.3823 38.3123 41.3413 38.813 41.2632C39.1955 41.16 40.1322 40.9982 40.0463 39.7683Z" fill="#FFCF00"/>
<path d="M36.4962 39.6708C36.7456 39.5927 36.9368 39.9301 36.6098 40.0751C36.5627 40.2006 36.6375 40.3373 36.837 40.3847C36.6411 40.4794 36.406 40.3964 36.3119 40.1992C36.2177 40.0021 36.3002 39.7655 36.4962 39.6708Z" fill="#ECA93F"/>
<path d="M39.3064 39.5678C39.1013 39.5009 38.9433 39.7798 39.2149 39.9025C39.2509 40.0057 39.19 40.1173 39.0237 40.1563C39.5502 40.2651 39.578 39.6655 39.3008 39.5678" fill="#ECA93F"/>
</g>
<rect x="33" y="3" width="30" height="30" rx="15" fill="#F4F4F4"/>
<path d="M54.4997 11.2312C52.6322 10.0645 50.1738 10.3424 47.9812 11.7202C45.7955 10.3424 43.3355 10.0645 41.4704 11.2312C38.52 13.075 38.1613 17.8235 40.6699 21.8378C42.5191 24.7974 45.4109 26.5315 47.985 26.4996C50.5592 26.5316 53.4509 24.7974 55.3001 21.8379C57.8057 17.8235 57.4501 13.0751 54.4996 11.2312H54.4997ZM42.0263 20.9902C41.5091 20.1702 41.1188 19.2766 40.8687 18.3399C40.6466 17.5267 40.5616 16.6822 40.6174 15.8411C40.7294 14.3576 41.3333 13.2022 42.3173 12.5876C43.3013 11.973 44.6021 11.9357 45.9874 12.4856C46.1953 12.5686 46.4009 12.6646 46.605 12.7704C45.8352 13.4723 45.1658 14.277 44.6158 15.1618C43.0926 17.5989 42.628 20.3109 43.1596 22.473C42.7357 22.0158 42.3563 21.5193 42.0263 20.9902ZM55.1021 18.3391C54.8517 19.2758 54.4614 20.1693 53.9445 20.9895C53.6142 21.5193 53.2348 22.0168 52.8112 22.4753C53.2865 20.5371 52.9635 18.1624 51.7983 15.9356C51.7797 15.8989 51.7536 15.8665 51.7217 15.8406C51.6898 15.8146 51.6528 15.7956 51.6131 15.7849C51.5734 15.7741 51.5319 15.7718 51.4912 15.778C51.4506 15.7843 51.4117 15.7991 51.3771 15.8213L47.7444 18.0909C47.7112 18.1115 47.6825 18.1385 47.6598 18.1703C47.6371 18.2021 47.6209 18.2381 47.6122 18.2761C47.6034 18.3142 47.6022 18.3536 47.6087 18.3921C47.6152 18.4307 47.6292 18.4675 47.6499 18.5006L48.1831 19.3528C48.2037 19.3859 48.2306 19.4147 48.2623 19.4373C48.294 19.46 48.3299 19.4762 48.3679 19.485C48.4059 19.4937 48.4453 19.4949 48.4837 19.4884C48.5222 19.482 48.559 19.468 48.592 19.4472L50.9468 17.9759C51.023 18.2043 51.0991 18.4328 51.1563 18.6613C51.3784 19.4734 51.4636 20.3168 51.4084 21.157C51.2964 22.6399 50.6925 23.7951 49.7085 24.4105C49.201 24.7208 48.6194 24.8892 48.0246 24.8979H47.9493C47.3544 24.8893 46.7728 24.721 46.2654 24.4105C45.2806 23.7951 44.6767 22.6399 44.5647 21.157C44.5093 20.3159 44.5942 19.4714 44.816 18.6582C45.3265 16.7768 46.3815 15.0882 47.8487 13.8047C48.4814 13.2493 49.2021 12.803 49.9812 12.484C51.3627 11.9341 52.6657 11.9707 53.6505 12.5861C54.6352 13.2014 55.2384 14.356 55.3503 15.8396C55.4068 16.6808 55.3229 17.5255 55.1021 18.3391L55.1021 18.3391Z" fill="#1BDBDB"/>
<rect x="1" y="3" width="30" height="30" rx="15" fill="#F4F4F4"/>
<path d="M25.7499 11.3501C24.9061 11.3501 24.1749 11.8188 23.7905 12.5032L23.7436 12.597L21.9811 16.0657L19.7499 20.4626L21.2124 23.3407L21.2968 23.5001C21.5218 23.8938 21.8593 24.222 22.2718 24.4188C22.6843 24.2126 23.0218 23.8938 23.2468 23.5001L23.3311 23.3407L27.7092 14.7157L27.8124 14.5095C27.9342 14.2282 27.9999 13.9282 27.9999 13.6001C27.9999 12.3532 26.9967 11.3501 25.7499 11.3501V11.3501ZM12.2405 15.5313L10.7874 12.6626L10.703 12.5032C10.478 12.1095 10.1405 11.7813 9.72802 11.5845C9.31552 11.7907 8.97802 12.1095 8.75302 12.5032L8.67802 12.6626L4.2999 21.2876L4.19678 21.4938C4.0749 21.7751 4.00928 22.0751 4.00928 22.4032C4.00928 23.6407 5.0124 24.6532 6.25927 24.6532C7.10302 24.6532 7.83427 24.1845 8.21865 23.5001L8.26552 23.4063L10.028 19.9376L12.2499 15.5407L12.2405 15.5313Z" fill="#FF5000"/>
<path d="M25.75 11.3501C24.9062 11.3501 24.1656 11.8188 23.7906 12.5032L23.7437 12.597L21.9812 16.0657L19.75 20.4626L21.2125 23.3407L21.2969 23.5001C21.5219 23.8938 21.8594 24.222 22.2719 24.4188C22.6844 24.2126 23.0219 23.8938 23.2469 23.5001L23.3312 23.3407L27.7094 14.7157L27.8125 14.5095C27.9344 14.2282 28 13.9282 28 13.6001C28 12.3532 26.9875 11.3501 25.75 11.3501V11.3501Z" fill="url(#paint0_linear_1170_21114)"/>
<path d="M6.25 24.6532C7.09375 24.6532 7.83437 24.1845 8.20937 23.5001L8.25625 23.4063L10.0187 19.9376L12.25 15.5407L10.7875 12.6626L10.7031 12.5032C10.4781 12.1095 10.1406 11.7813 9.72812 11.5845C9.31562 11.7907 8.97812 12.1095 8.75312 12.5032L8.67812 12.6626L4.3 21.2876L4.1875 21.5032C4.06562 21.7845 4 22.0845 4 22.4126C4 23.6501 5.00312 24.6532 6.25 24.6532Z" fill="url(#paint1_linear_1170_21114)"/>
<path d="M12.2405 15.5313L10.7874 12.6626L10.703 12.5032C10.478 12.1095 10.1405 11.7813 9.72803 11.5845C9.85928 11.5188 10.0093 11.4626 10.1499 11.4251C10.328 11.3782 10.5249 11.3501 10.7124 11.3501H13.7874C14.6311 11.3595 15.3624 11.8188 15.7468 12.5032L15.8124 12.6626L19.7593 20.472L21.2124 23.3407L21.2968 23.5001C21.5218 23.8938 21.8593 24.222 22.2718 24.4188C22.1405 24.4845 21.9905 24.5407 21.8499 24.5782C21.6718 24.6251 21.4749 24.6532 21.278 24.6532H18.2218C17.378 24.6438 16.6468 24.1845 16.2624 23.5001L16.178 23.3407L12.2405 15.5313Z" fill="#FF8C44"/>
<defs>
<linearGradient id="paint0_linear_1170_21114" x1="20.8491" y1="23.7582" x2="30.2083" y2="15.7598" gradientUnits="userSpaceOnUse">
<stop stop-color="#D4202C"/>
<stop offset="0.04166" stop-color="#D82D2B" stop-opacity="0.958"/>
<stop offset="0.176" stop-color="#E25226" stop-opacity="0.824"/>
<stop offset="0.3167" stop-color="#EB7123" stop-opacity="0.683"/>
<stop offset="0.4635" stop-color="#F28920" stop-opacity="0.536"/>
<stop offset="0.6188" stop-color="#F69A1E" stop-opacity="0.381"/>
<stop offset="0.7886" stop-color="#F9A41D" stop-opacity="0.211"/>
<stop offset="1" stop-color="#FAA71D" stop-opacity="0"/>
</linearGradient>
<linearGradient id="paint1_linear_1170_21114" x1="11.1465" y1="12.2431" x2="1.78717" y2="20.2418" gradientUnits="userSpaceOnUse">
<stop stop-color="#D4202C"/>
<stop offset="0.04166" stop-color="#D82D2B" stop-opacity="0.958"/>
<stop offset="0.176" stop-color="#E25226" stop-opacity="0.824"/>
<stop offset="0.3167" stop-color="#EB7123" stop-opacity="0.683"/>
<stop offset="0.4635" stop-color="#F28920" stop-opacity="0.536"/>
<stop offset="0.6188" stop-color="#F69A1E" stop-opacity="0.381"/>
<stop offset="0.7886" stop-color="#F9A41D" stop-opacity="0.211"/>
<stop offset="1" stop-color="#FAA71D" stop-opacity="0"/>
</linearGradient>
<clipPath id="clip0_1170_21114">
<rect width="17.25" height="24" fill="white" transform="translate(23 34)"/>
</clipPath>
</defs>
</svg>
