<svg width="32" height="32" viewBox="0 0 32 32" fill="none" xmlns="http://www.w3.org/2000/svg">
<path d="M16 27C22.0751 27 27 22.0751 27 16C27 9.92487 22.0751 5 16 5C9.92487 5 5 9.92487 5 16C5 22.0751 9.92487 27 16 27Z" stroke="#D7FC51" stroke-width="2" stroke-miterlimit="10"/>
<path d="M5 16H27" stroke="#D7FC51" stroke-width="2" stroke-linecap="round" stroke-linejoin="round"/>
<path d="M16 27C18.7614 27 21 22.0751 21 16C21 9.92487 18.7614 5 16 5C13.2386 5 11 9.92487 11 16C11 22.0751 13.2386 27 16 27Z" stroke="#D7FC51" stroke-width="2" stroke-miterlimit="10"/>
<path d="M4 5.82211L5.854 7L5.362 4.78L7 3.28632L4.843 3.09368L4 1L3.157 3.09368L1 3.28632L2.638 4.78L2.146 7L4 5.82211Z" fill="#D7FC51"/>
<path d="M28 29.8221L29.854 31L29.362 28.78L31 27.2863L28.843 27.0937L28 25L27.157 27.0937L25 27.2863L26.638 28.78L26.146 31L28 29.8221Z" fill="#D7FC51"/>
</svg>
