<svg width="24" height="24" viewBox="0 0 24 24" xmlns="http://www.w3.org/2000/svg">
<path opacity="0.2" d="M20.9375 12C20.9375 16.936 16.936 20.9375 12 20.9375C7.06395 20.9375 3.0625 16.936 3.0625 12C3.0625 7.06395 7.06395 3.0625 12 3.0625C16.936 3.0625 20.9375 7.06395 20.9375 12Z" stroke-width="0.125"/>
<path d="M12 21C16.9706 21 21 16.9706 21 12C21 7.02944 16.9706 3 12 3C7.02944 3 3 7.02944 3 12C3 16.9706 7.02944 21 12 21Z" stroke-width="2" stroke-miterlimit="10"/>
<path d="M3 12H21" stroke-width="2" stroke-linecap="round" stroke-linejoin="round"/>
<path d="M12 20.7585C14.0711 20.7585 15.75 16.8372 15.75 12.0001C15.75 7.16297 14.0711 3.2417 12 3.2417C9.92893 3.2417 8.25 7.16297 8.25 12.0001C8.25 16.8372 9.92893 20.7585 12 20.7585Z" stroke-width="2" stroke-miterlimit="10"/>
</svg>
