<svg width="33" height="32" viewBox="0 0 33 32" fill="none" xmlns="http://www.w3.org/2000/svg">
<path d="M25.9444 15.2265L20.5578 7.69317C20.1044 7.05317 19.3711 6.6665 18.5844 6.6665C16.5978 6.6665 15.4511 8.9065 16.5978 10.5198L20.5044 15.9998L16.5978 21.4798C15.4378 23.0932 16.5978 25.3332 18.5844 25.3332C19.3711 25.3332 20.1178 24.9465 20.5711 24.3065L25.9578 16.7732C26.2778 16.3065 26.2778 15.6932 25.9444 15.2265Z" fill="#9E9E9E"/>
<path d="M16.6111 15.2265L11.2378 7.69317C10.7711 7.05317 10.0378 6.6665 9.25111 6.6665C7.26444 6.6665 6.10444 8.9065 7.26444 10.5198L11.1711 15.9998L7.26444 21.4798C6.10444 23.0932 7.26444 25.3332 9.25111 25.3332C10.0378 25.3332 10.7844 24.9465 11.2378 24.3065L16.6244 16.7732C16.9444 16.3065 16.9444 15.6932 16.6111 15.2265Z" fill="#9E9E9E"/>
</svg>
