<svg width="40" height="40" viewBox="0 0 40 40" fill="none" xmlns="http://www.w3.org/2000/svg">
<rect width="40" height="40" rx="20" fill="#383838"/>
<path d="M25.2876 13.9625L26.8626 10.8875L23.0376 13.0625C23.2251 11.8625 23.4501 10.2125 23.7876 8C15.4251 12.4625 12.5001 17.075 11.4876 20.0375C11.4501 20.15 11.4126 20.225 11.3751 20.3375C10.8501 22.0625 11.0001 23.1875 11.0001 23.1875C11.1126 28.0625 15.0876 32 20.0001 32C24.9876 32 29.0376 27.95 29.0376 23V13.9625H25.2876ZM24.5376 22.9625C24.5376 25.4375 22.5126 27.4625 20.0376 27.4625C17.5626 27.4625 15.5376 25.4375 15.5376 22.9625C15.5376 20.4875 17.5626 18.4625 20.0376 18.4625H24.5376V22.9625Z" fill="#0C9CD8"/>
<path d="M17.8625 22.9627C17.8625 24.1252 18.8375 25.1002 20 25.1002C21.1625 25.1002 22.1375 24.1627 22.1375 22.9627C22.1375 21.8002 21.2 20.8252 20 20.8252C18.8375 20.8252 17.8625 21.8002 17.8625 22.9627Z" fill="#0C9CD8"/>
</svg>
