<svg width="64" height="64" viewBox="0 0 64 64" fill="none" xmlns="http://www.w3.org/2000/svg">
<rect width="64" height="64" rx="32" fill="#212121"/>
<g clip-path="url(#clip0_2796_26081)">
<path d="M40.4601 22.34L42.9801 17.42L36.8601 20.9C37.1601 18.98 37.5201 16.34 38.0601 12.8C24.6801 19.94 20.0001 27.32 18.3801 32.06C18.3201 32.24 18.2601 32.3601 18.2001 32.5401C17.3601 35.3001 17.6001 37.1 17.6001 37.1C17.7801 44.9001 24.1401 51.2001 32.0001 51.2001C39.9801 51.2001 46.4601 44.7201 46.4601 36.8V22.34H40.4601ZM39.2601 36.7401C39.2601 40.7001 36.0201 43.9401 32.0601 43.9401C28.1001 43.9401 24.8601 40.7001 24.8601 36.7401C24.8601 32.7801 28.1001 29.54 32.0601 29.54H39.2601V36.7401Z" fill="#0C9CD8"/>
<path d="M28.5801 36.7401C28.5801 38.6001 30.1401 40.1601 32.0001 40.1601C33.8601 40.1601 35.4201 38.6601 35.4201 36.7401C35.4201 34.8801 33.9201 33.3201 32.0001 33.3201C30.1401 33.3201 28.5801 34.8801 28.5801 36.7401Z" fill="#0C9CD8"/>
</g>
<defs>
<clipPath id="clip0_2796_26081">
<rect width="38.4" height="38.4" fill="white" transform="translate(12.8 12.8)"/>
</clipPath>
</defs>
</svg>
