<svg width="24" height="24" viewBox="0 0 24 24" xmlns="http://www.w3.org/2000/svg">
<path d="M12 16.125C14.2782 16.125 16.125 14.2782 16.125 12C16.125 9.72183 14.2782 7.875 12 7.875C9.72183 7.875 7.875 9.72183 7.875 12C7.875 14.2782 9.72183 16.125 12 16.125Z" stroke-width="2" stroke-linecap="round" stroke-linejoin="round"/>
<path d="M17.2184 6.10177C17.4586 6.31443 17.6856 6.54147 17.8983 6.78166L20.4597 7.14743C20.8751 7.87075 21.1954 8.64467 21.4126 9.45001L19.8606 11.5192C19.8606 11.5192 19.8801 12.1604 19.8607 12.4806L21.4133 14.5505C21.1955 15.3557 20.8747 16.1294 20.4588 16.8524L17.8983 17.2182C17.8983 17.2182 17.4587 17.6854 17.2185 17.898L16.8527 20.4595C16.1294 20.8749 15.3555 21.1951 14.5502 21.4123L12.4811 19.8604C12.1608 19.8799 11.8398 19.8799 11.5195 19.8604L9.44968 21.413C8.64449 21.1953 7.87078 20.8745 7.14774 20.4586L6.78204 17.8981C6.54185 17.6855 6.31481 17.4584 6.10215 17.2183L3.54068 16.8525C3.12529 16.1292 2.80503 15.3552 2.58783 14.5499L4.13981 12.4807C4.13981 12.4807 4.12029 11.8395 4.13975 11.5193L2.58716 9.44943C2.8049 8.64424 3.12569 7.87054 3.54156 7.1475L6.10202 6.7818C6.31467 6.54161 6.54172 6.31457 6.7819 6.10191L7.14767 3.54043C7.87099 3.12505 8.64492 2.80479 9.45025 2.58759L11.5194 4.13951C11.8396 4.12005 12.1607 4.12005 12.4809 4.13951L14.5507 2.58691C15.3559 2.80466 16.1296 3.12544 16.8527 3.54132L17.2184 6.10177Z" stroke-width="2" stroke-linecap="round" stroke-linejoin="round"/>
</svg>
