<svg width="40" height="40" viewBox="0 0 40 40" fill="none" xmlns="http://www.w3.org/2000/svg">
<rect width="40" height="40" rx="20" fill="#383838"/>
<path d="M28.6662 10.975C26.1763 9.4193 22.8984 9.78993 19.9749 11.6269C17.0606 9.78993 13.7807 9.4193 11.2939 10.975C7.36 13.4333 6.88176 19.7647 10.2266 25.1171C12.6921 29.0632 16.5478 31.3754 19.98 31.3328C23.4123 31.3754 27.2679 29.0632 29.7334 25.1172C33.0743 19.7647 32.6001 13.4334 28.6661 10.975H28.6662ZM12.0351 23.9869C11.3454 22.8936 10.825 21.7022 10.4916 20.4531C10.1954 19.369 10.0822 18.243 10.1565 17.1215C10.3059 15.1434 11.1111 13.6029 12.423 12.7835C13.735 11.964 15.4694 11.9143 17.3165 12.6474C17.5937 12.7581 17.8679 12.8861 18.14 13.0272C17.1136 13.9631 16.2211 15.036 15.4877 16.2157C13.4567 19.4652 12.8373 23.0812 13.5462 25.964C12.981 25.3544 12.475 24.6924 12.0351 23.9869ZM29.4695 20.4522C29.1356 21.7011 28.6153 22.8924 27.9259 23.986C27.4857 24.6924 26.9798 25.3557 26.4149 25.9671C27.0486 23.3828 26.618 20.2166 25.0644 17.2474C25.0396 17.1985 25.0048 17.1554 24.9622 17.1208C24.9197 17.0861 24.8704 17.0608 24.8175 17.0465C24.7645 17.0321 24.7092 17.029 24.655 17.0374C24.6008 17.0458 24.549 17.0654 24.5028 17.0951L19.6592 20.1212C19.615 20.1487 19.5767 20.1847 19.5464 20.2271C19.5162 20.2695 19.4946 20.3175 19.4829 20.3682C19.4712 20.4189 19.4696 20.4715 19.4783 20.5228C19.4869 20.5742 19.5056 20.6234 19.5332 20.6675L20.2441 21.8038C20.2715 21.8479 20.3075 21.8862 20.3498 21.9164C20.3921 21.9467 20.4399 21.9682 20.4906 21.9799C20.5412 21.9916 20.5937 21.9932 20.645 21.9846C20.6962 21.976 20.7453 21.9573 20.7893 21.9297L23.9291 19.9678C24.0307 20.2724 24.1322 20.5771 24.2084 20.8818C24.5045 21.9645 24.6181 23.0891 24.5445 24.2094C24.3952 26.1865 23.5899 27.7269 22.278 28.5474C21.6013 28.9611 20.8259 29.1855 20.0328 29.1972H19.9324C19.1392 29.1858 18.3638 28.9613 17.6871 28.5474C16.3741 27.7269 15.5689 26.1865 15.4197 24.2094C15.3457 23.0879 15.459 21.9619 15.7547 20.8776C16.4353 18.3691 17.842 16.1177 19.7983 14.4062C20.6419 13.6657 21.6027 13.0706 22.6416 12.6453C24.4836 11.9122 26.221 11.9609 27.534 12.7814C28.847 13.6019 29.6512 15.1413 29.8005 17.1194C29.8758 18.241 29.7639 19.3673 29.4694 20.4521L29.4695 20.4522Z" fill="#1BDBDB"/>
</svg>
