<svg width="64" height="64" viewBox="0 0 64 64" fill="none" xmlns="http://www.w3.org/2000/svg">
<rect width="64" height="64" rx="32" fill="#212121"/>
<path d="M45.866 17.56C41.8821 15.0709 36.6375 15.6639 31.9599 18.6031C27.2971 15.6639 22.0492 15.0709 18.0702 17.56C11.776 21.4934 11.0109 31.6235 16.3626 40.1874C20.3075 46.5011 26.4766 50.2006 31.9681 50.1324C37.4597 50.2007 43.6286 46.5011 47.5736 40.1875C52.9189 31.6235 52.1602 21.4935 45.8659 17.56H45.866ZM19.2563 38.3791C18.1527 36.6297 17.3201 34.7234 16.7866 32.725C16.3127 30.9903 16.1315 29.1887 16.2505 27.3944C16.4895 24.2294 17.7778 21.7647 19.8769 20.4536C21.9761 19.1425 24.7511 19.0629 27.7065 20.2358C28.15 20.4129 28.5887 20.6177 29.0241 20.8435C27.3818 22.341 25.9538 24.0577 24.7803 25.9451C21.5308 31.1442 20.5398 36.9298 21.6739 41.5425C20.7696 40.567 19.9601 39.5078 19.2563 38.3791ZM47.1512 32.7235C46.617 34.7217 45.7845 36.6278 44.6816 38.3776C43.9771 39.5078 43.1677 40.5691 42.2639 41.5474C43.2779 37.4124 42.5889 32.3465 40.1031 27.5959C40.0634 27.5176 40.0077 27.4486 39.9396 27.3932C39.8716 27.3378 39.7927 27.2973 39.708 27.2744C39.6233 27.2514 39.5347 27.2464 39.448 27.2598C39.3613 27.2732 39.2784 27.3047 39.2046 27.3521L31.4547 32.1938C31.384 32.238 31.3227 32.2956 31.2743 32.3634C31.2259 32.4312 31.1914 32.5079 31.1727 32.5891C31.154 32.6703 31.1514 32.7544 31.1653 32.8366C31.1791 32.9187 31.209 32.9974 31.2532 33.068L32.3906 34.8861C32.4345 34.9567 32.492 35.0179 32.5597 35.0663C32.6273 35.1147 32.7039 35.1492 32.7849 35.1679C32.866 35.1866 32.9499 35.1891 33.032 35.1753C33.114 35.1615 33.1925 35.1317 33.263 35.0874L38.2866 31.9485C38.4491 32.4359 38.6116 32.9233 38.7334 33.4108C39.2073 35.1433 39.389 36.9426 39.2712 38.735C39.0323 41.8983 37.744 44.363 35.6449 45.6758C34.5621 46.3378 33.3215 46.6969 32.0525 46.7156H31.8918C30.6228 46.6973 29.3821 46.3381 28.2995 45.6758C26.1987 44.363 24.9102 41.8983 24.6715 38.735C24.5532 36.9406 24.7344 35.1391 25.2076 33.4042C26.2965 29.3905 28.5473 25.7882 31.6773 23.0499C33.027 21.8651 34.5644 20.913 36.2265 20.2325C39.1737 19.0595 41.9536 19.1375 44.0544 20.4503C46.1552 21.763 47.4419 24.226 47.6808 27.3911C47.8013 29.1856 47.6223 30.9877 47.1511 32.7234L47.1512 32.7235Z" fill="#1BDBDB"/>
</svg>
