<svg width="24" height="24" viewBox="0 0 24 24" fill="none" xmlns="http://www.w3.org/2000/svg">
<path d="M20.7933 10.0011H12.8533C11.9033 7.3111 9.09331 5.5011 5.97331 6.1211C3.68331 6.5811 1.82331 8.4211 1.34331 10.7011C0.523309 14.5811 3.46331 18.0011 7.20331 18.0011C9.81331 18.0011 12.0333 16.3311 12.8533 14.0011H13.2033L14.4933 15.2911C14.8833 15.6811 15.5133 15.6811 15.9033 15.2911L17.2033 14.0011L18.4933 15.2911C18.8833 15.6811 19.5233 15.6811 19.9133 15.2911L22.5033 12.6811C22.8933 12.2911 22.8933 11.6511 22.4933 11.2611L21.5033 10.2911C21.3033 10.1011 21.0533 10.0011 20.7933 10.0011ZM7.20331 15.0011C5.55331 15.0011 4.20331 13.6511 4.20331 12.0011C4.20331 10.3511 5.55331 9.0011 7.20331 9.0011C8.85331 9.0011 10.2033 10.3511 10.2033 12.0011C10.2033 13.6511 8.85331 15.0011 7.20331 15.0011Z" fill="#FFCE0A"/>
</svg>
