<svg width="36" height="36" viewBox="0 0 36 36" fill="none" xmlns="http://www.w3.org/2000/svg">
<rect width="36" height="36" rx="18" fill="white"/>
<g clip-path="url(#clip0_3538_28026)">
<path d="M29.7459 18.27C29.7459 17.48 29.6759 16.73 29.5559 16H18.2559V20.51H24.7259C24.4359 21.99 23.5859 23.24 22.3259 24.09V27.09H26.1859C28.4459 25 29.7459 21.92 29.7459 18.27Z" fill="#4285F4"/>
<path d="M18.2549 30C21.4949 30 24.2049 28.92 26.1849 27.09L22.3249 24.09C21.2449 24.81 19.8749 25.25 18.2549 25.25C15.1249 25.25 12.4749 23.14 11.5249 20.29H7.54492V23.38C9.51492 27.3 13.5649 30 18.2549 30Z" fill="#34A853"/>
<path d="M11.5259 20.2901C11.2759 19.5701 11.1459 18.8001 11.1459 18.0001C11.1459 17.2001 11.2859 16.4301 11.5259 15.7101V12.6201H7.54586C6.72586 14.2401 6.25586 16.0601 6.25586 18.0001C6.25586 19.9401 6.72586 21.7601 7.54586 23.3801L11.5259 20.2901Z" fill="#FBBC05"/>
<path d="M18.2549 10.75C20.0249 10.75 21.6049 11.36 22.8549 12.55L26.2749 9.13C24.2049 7.19 21.4949 6 18.2549 6C13.5649 6 9.51492 8.7 7.54492 12.62L11.5249 15.71C12.4749 12.86 15.1249 10.75 18.2549 10.75Z" fill="#EA4335"/>
</g>
<defs>
<clipPath id="clip0_3538_28026">
<rect width="24" height="24" fill="white" transform="translate(6 6)"/>
</clipPath>
</defs>
</svg>
