<svg width="24" height="24" viewBox="0 0 24 24" xmlns="http://www.w3.org/2000/svg">
<path d="M20.7935 10.0011H12.8535C11.9035 7.3111 9.09348 5.5011 5.97348 6.1211C3.68348 6.5811 1.82348 8.4211 1.34348 10.7011C0.523484 14.5811 3.46348 18.0011 7.20348 18.0011C9.81348 18.0011 12.0335 16.3311 12.8535 14.0011H13.2035L14.4935 15.2911C14.8835 15.6811 15.5135 15.6811 15.9035 15.2911L17.2035 14.0011L18.4935 15.2911C18.8835 15.6811 19.5235 15.6811 19.9135 15.2911L22.5035 12.6811C22.8935 12.2911 22.8935 11.6511 22.4935 11.2611L21.5035 10.2911C21.3035 10.1011 21.0535 10.0011 20.7935 10.0011ZM7.20348 15.0011C5.55348 15.0011 4.20348 13.6511 4.20348 12.0011C4.20348 10.3511 5.55348 9.0011 7.20348 9.0011C8.85348 9.0011 10.2035 10.3511 10.2035 12.0011C10.2035 13.6511 8.85348 15.0011 7.20348 15.0011Z" fill="#D6D6D6"/>
</svg>
