<svg width="20" height="20" viewBox="0 0 20 20" xmlns="http://www.w3.org/2000/svg">
<path d="M16.666 2.5H4.99935C4.08268 2.5 3.33268 3.25 3.33268 4.16667V10.8333C3.33268 12.675 4.82435 14.1667 6.66602 14.1667H11.666C13.5077 14.1667 14.9993 12.675 14.9993 10.8333V8.33333H16.666C17.5827 8.33333 18.3327 7.58333 18.3327 6.66667V4.16667C18.3327 3.25 17.5827 2.5 16.666 2.5ZM16.666 6.66667H14.9993V4.16667H16.666V6.66667ZM2.49935 17.5H15.8327C16.291 17.5 16.666 17.125 16.666 16.6667C16.666 16.2083 16.291 15.8333 15.8327 15.8333H2.49935C2.04102 15.8333 1.66602 16.2083 1.66602 16.6667C1.66602 17.125 2.04102 17.5 2.49935 17.5Z"/>
</svg>
