<svg width="24" height="24" viewBox="0 0 24 24" xmlns="http://www.w3.org/2000/svg">
<path d="M12 13.5C10.9 13.5 10 14.4 10 15.5C10 16.6 10.9 17.5 12 17.5C13.1 17.5 14 16.6 14 15.5C14 14.4 13.1 13.5 12 13.5ZM18 8.5H17V6.5C17 3.74 14.76 1.5 12 1.5C9.72 1.5 7.73 3.04 7.16 5.25C7.02 5.79 7.34 6.33 7.88 6.47C8.41 6.61 8.96 6.29 9.1 5.75C9.44 4.43 10.63 3.5 12 3.5C13.65 3.5 15 4.85 15 6.5V8.5H6C4.9 8.5 4 9.4 4 10.5V20.5C4 21.6 4.9 22.5 6 22.5H18C19.1 22.5 20 21.6 20 20.5V10.5C20 9.4 19.1 8.5 18 8.5ZM18 19.5C18 20.05 17.55 20.5 17 20.5H7C6.45 20.5 6 20.05 6 19.5V11.5C6 10.95 6.45 10.5 7 10.5H17C17.55 10.5 18 10.95 18 11.5V19.5Z" fill="#D6D6D6"/>
</svg>
