<svg width="40" height="40" viewBox="0 0 40 40" fill="none" xmlns="http://www.w3.org/2000/svg">
<rect width="40" height="40" rx="20" fill="#383838"/>
<path d="M31.3748 12.2402C30.3904 12.2402 29.5373 12.7871 29.0888 13.5855L29.0342 13.6949L26.9779 17.7418L24.3748 22.8715L26.081 26.2293L26.1795 26.4152C26.442 26.8746 26.8357 27.2574 27.317 27.4871C27.7982 27.2465 28.192 26.8746 28.4545 26.4152L28.5529 26.2293L33.6607 16.1668L33.781 15.9262C33.9232 15.598 33.9998 15.248 33.9998 14.8652C33.9998 13.4105 32.8295 12.2402 31.3748 12.2402V12.2402ZM15.6139 17.1184L13.9185 13.7715L13.8201 13.5855C13.5576 13.1262 13.1639 12.7434 12.6826 12.5137C12.2014 12.7543 11.8076 13.1262 11.5451 13.5855L11.4576 13.7715L6.3498 23.834L6.22949 24.0746C6.0873 24.4027 6.01074 24.7527 6.01074 25.1355C6.01074 26.5793 7.18105 27.7605 8.63574 27.7605C9.62011 27.7605 10.4732 27.2137 10.9217 26.4152L10.9764 26.3058L13.0326 22.259L15.6248 17.1293L15.6139 17.1184Z" fill="#FF5000"/>
<path d="M31.3751 12.2402C30.3907 12.2402 29.5267 12.7871 29.0892 13.5855L29.0345 13.6949L26.9782 17.7418L24.3751 22.8715L26.0814 26.2293L26.1798 26.4152C26.4423 26.8746 26.8361 27.2574 27.3173 27.4871C27.7986 27.2465 28.1923 26.8746 28.4548 26.4152L28.5532 26.2293L33.661 16.1668L33.7814 15.9262C33.9235 15.598 34.0001 15.248 34.0001 14.8652C34.0001 13.4105 32.8189 12.2402 31.3751 12.2402V12.2402Z" fill="url(#paint0_linear_2717_27667)"/>
<path d="M8.625 27.7605C9.60937 27.7605 10.4734 27.2137 10.9109 26.4152L10.9656 26.3058L13.0219 22.259L15.625 17.1293L13.9187 13.7715L13.8203 13.5855C13.5578 13.1262 13.1641 12.7434 12.6828 12.5137C12.2016 12.7543 11.8078 13.1262 11.5453 13.5855L11.4578 13.7715L6.35 23.834L6.21875 24.0855C6.07656 24.4137 6 24.7637 6 25.1465C6 26.5902 7.17031 27.7605 8.625 27.7605Z" fill="url(#paint1_linear_2717_27667)"/>
<path d="M15.6139 17.1184L13.9186 13.7715L13.8201 13.5855C13.5576 13.1262 13.1639 12.7434 12.6826 12.5137C12.8357 12.4371 13.0107 12.3715 13.1748 12.3277C13.3826 12.273 13.6123 12.2402 13.8311 12.2402H17.4186C18.4029 12.2512 19.256 12.7871 19.7045 13.5855L19.781 13.7715L24.3857 22.8824L26.081 26.2293L26.1795 26.4152C26.442 26.8746 26.8357 27.2574 27.317 27.4871C27.1639 27.5637 26.9889 27.6293 26.8248 27.673C26.617 27.7277 26.3873 27.7605 26.1576 27.7605H22.592C21.6076 27.7496 20.7545 27.2137 20.306 26.4152L20.2076 26.2293L15.6139 17.1184Z" fill="#FF8C44"/>
<defs>
<linearGradient id="paint0_linear_2717_27667" x1="25.6574" y1="26.7164" x2="36.5764" y2="17.3849" gradientUnits="userSpaceOnUse">
<stop stop-color="#D4202C"/>
<stop offset="0.04166" stop-color="#D82D2B" stop-opacity="0.958"/>
<stop offset="0.176" stop-color="#E25226" stop-opacity="0.824"/>
<stop offset="0.3167" stop-color="#EB7123" stop-opacity="0.683"/>
<stop offset="0.4635" stop-color="#F28920" stop-opacity="0.536"/>
<stop offset="0.6188" stop-color="#F69A1E" stop-opacity="0.381"/>
<stop offset="0.7886" stop-color="#F9A41D" stop-opacity="0.211"/>
<stop offset="1" stop-color="#FAA71D" stop-opacity="0"/>
</linearGradient>
<linearGradient id="paint1_linear_2717_27667" x1="14.3376" y1="13.2821" x2="3.41837" y2="22.6138" gradientUnits="userSpaceOnUse">
<stop stop-color="#D4202C"/>
<stop offset="0.04166" stop-color="#D82D2B" stop-opacity="0.958"/>
<stop offset="0.176" stop-color="#E25226" stop-opacity="0.824"/>
<stop offset="0.3167" stop-color="#EB7123" stop-opacity="0.683"/>
<stop offset="0.4635" stop-color="#F28920" stop-opacity="0.536"/>
<stop offset="0.6188" stop-color="#F69A1E" stop-opacity="0.381"/>
<stop offset="0.7886" stop-color="#F9A41D" stop-opacity="0.211"/>
<stop offset="1" stop-color="#FAA71D" stop-opacity="0"/>
</linearGradient>
</defs>
</svg>
