<svg width="64" height="64" viewBox="0 0 64 64" fill="none" xmlns="http://www.w3.org/2000/svg">
<rect width="64" height="64" rx="32" fill="#212121"/>
<path d="M50.1996 19.584C48.6246 19.584 47.2596 20.459 46.5421 21.7365L46.4546 21.9115L43.1646 28.3865L38.9997 36.594L41.7297 41.9665L41.8871 42.264C42.3071 42.999 42.9371 43.6115 43.7071 43.979C44.4771 43.594 45.1071 42.999 45.5271 42.264L45.6846 41.9665L53.8571 25.8665L54.0496 25.4815C54.2771 24.9565 54.3996 24.3965 54.3996 23.784C54.3996 21.4565 52.5271 19.584 50.1996 19.584V19.584ZM24.9822 27.389L22.2697 22.034L22.1122 21.7365C21.6922 21.0015 21.0622 20.389 20.2922 20.0215C19.5222 20.4065 18.8922 21.0015 18.4722 21.7365L18.3322 22.034L10.1597 38.134L9.96719 38.519C9.73969 39.044 9.61719 39.604 9.61719 40.2165C9.61719 42.5265 11.4897 44.4165 13.8172 44.4165C15.3922 44.4165 16.7572 43.5415 17.4747 42.264L17.5622 42.089L20.8522 35.614L24.9997 27.4065L24.9822 27.389Z" fill="#FF5000"/>
<path d="M50.2002 19.584C48.6252 19.584 47.2427 20.459 46.5427 21.7365L46.4552 21.9115L43.1652 28.3865L39.0002 36.594L41.7302 41.9665L41.8877 42.264C42.3077 42.999 42.9377 43.6115 43.7077 43.979C44.4777 43.594 45.1077 42.999 45.5277 42.264L45.6852 41.9665L53.8577 25.8665L54.0502 25.4815C54.2777 24.9565 54.4002 24.3965 54.4002 23.784C54.4002 21.4565 52.5102 19.584 50.2002 19.584V19.584Z" fill="url(#paint0_linear_2796_26080)"/>
<path d="M13.8001 44.4165C15.3751 44.4165 16.7576 43.5415 17.4576 42.264L17.5451 42.089L20.8351 35.614L25.0001 27.4065L22.2701 22.034L22.1126 21.7365C21.6926 21.0015 21.0626 20.389 20.2926 20.0215C19.5226 20.4065 18.8926 21.0015 18.4726 21.7365L18.3326 22.034L10.1601 38.134L9.9501 38.5365C9.7226 39.0615 9.6001 39.6215 9.6001 40.234C9.6001 42.544 11.4726 44.4165 13.8001 44.4165Z" fill="url(#paint1_linear_2796_26080)"/>
<path d="M24.9822 27.389L22.2697 22.034L22.1122 21.7365C21.6922 21.0015 21.0622 20.389 20.2922 20.0215C20.5372 19.899 20.8172 19.794 21.0797 19.724C21.4122 19.6365 21.7797 19.584 22.1297 19.584H27.8697C29.4447 19.6015 30.8097 20.459 31.5272 21.7365L31.6497 22.034L39.0172 36.6115L41.7297 41.9665L41.8872 42.264C42.3072 42.999 42.9372 43.6115 43.7072 43.979C43.4622 44.1015 43.1822 44.2065 42.9197 44.2765C42.5872 44.364 42.2197 44.4165 41.8522 44.4165H36.1472C34.5722 44.399 33.2072 43.5415 32.4897 42.264L32.3322 41.9665L24.9822 27.389Z" fill="#FF8C44"/>
<defs>
<linearGradient id="paint0_linear_2796_26080" x1="41.0518" y1="42.7458" x2="58.5224" y2="27.8155" gradientUnits="userSpaceOnUse">
<stop stop-color="#D4202C"/>
<stop offset="0.04166" stop-color="#D82D2B" stop-opacity="0.958"/>
<stop offset="0.176" stop-color="#E25226" stop-opacity="0.824"/>
<stop offset="0.3167" stop-color="#EB7123" stop-opacity="0.683"/>
<stop offset="0.4635" stop-color="#F28920" stop-opacity="0.536"/>
<stop offset="0.6188" stop-color="#F69A1E" stop-opacity="0.381"/>
<stop offset="0.7886" stop-color="#F9A41D" stop-opacity="0.211"/>
<stop offset="1" stop-color="#FAA71D" stop-opacity="0"/>
</linearGradient>
<linearGradient id="paint1_linear_2796_26080" x1="22.9402" y1="21.251" x2="5.46949" y2="36.1817" gradientUnits="userSpaceOnUse">
<stop stop-color="#D4202C"/>
<stop offset="0.04166" stop-color="#D82D2B" stop-opacity="0.958"/>
<stop offset="0.176" stop-color="#E25226" stop-opacity="0.824"/>
<stop offset="0.3167" stop-color="#EB7123" stop-opacity="0.683"/>
<stop offset="0.4635" stop-color="#F28920" stop-opacity="0.536"/>
<stop offset="0.6188" stop-color="#F69A1E" stop-opacity="0.381"/>
<stop offset="0.7886" stop-color="#F9A41D" stop-opacity="0.211"/>
<stop offset="1" stop-color="#FAA71D" stop-opacity="0"/>
</linearGradient>
</defs>
</svg>
