<svg width="24" height="24" viewBox="0 0 24 24" xmlns="http://www.w3.org/2000/svg">
<path d="M9.75024 4.5H5.25024C4.83603 4.5 4.50024 4.83579 4.50024 5.25V9.75C4.50024 10.1642 4.83603 10.5 5.25024 10.5H9.75024C10.1645 10.5 10.5002 10.1642 10.5002 9.75V5.25C10.5002 4.83579 10.1645 4.5 9.75024 4.5Z" stroke-width="2" stroke-linecap="round" stroke-linejoin="round"/>
<path d="M9.75024 13.5H5.25024C4.83603 13.5 4.50024 13.8358 4.50024 14.25V18.75C4.50024 19.1642 4.83603 19.5 5.25024 19.5H9.75024C10.1645 19.5 10.5002 19.1642 10.5002 18.75V14.25C10.5002 13.8358 10.1645 13.5 9.75024 13.5Z" stroke-width="2" stroke-linecap="round" stroke-linejoin="round"/>
<path d="M18.7502 4.5H14.2502C13.836 4.5 13.5002 4.83579 13.5002 5.25V9.75C13.5002 10.1642 13.836 10.5 14.2502 10.5H18.7502C19.1645 10.5 19.5002 10.1642 19.5002 9.75V5.25C19.5002 4.83579 19.1645 4.5 18.7502 4.5Z" stroke-width="2" stroke-linecap="round" stroke-linejoin="round"/>
<path d="M13.5002 13.5V16.5" stroke-width="2" stroke-linecap="round" stroke-linejoin="round"/>
<path d="M13.5002 19.5H16.5002V13.5" stroke-width="2" stroke-linecap="round" stroke-linejoin="round"/>
<path d="M16.5002 15H19.5002" stroke-width="2" stroke-linecap="round" stroke-linejoin="round"/>
<path d="M19.5002 18V19.5" stroke-width="2" stroke-linecap="round" stroke-linejoin="round"/>
</svg>
