<svg width="48" height="48" viewBox="0 0 48 48" fill="none" xmlns="http://www.w3.org/2000/svg">
<path d="M18.2031 20.5018H15.2031C14.6531 20.5018 14.2031 20.0518 14.2031 19.5018C14.2031 18.9518 14.6531 18.5018 15.2031 18.5018H18.2031C18.7531 18.5018 19.2031 18.9518 19.2031 19.5018C19.2031 20.0518 18.7531 20.5018 18.2031 20.5018ZM18.2031 23.5018H15.2031C14.6531 23.5018 14.2031 23.9518 14.2031 24.5018C14.2031 25.0518 14.6531 25.5018 15.2031 25.5018H18.2031C18.7531 25.5018 19.2031 25.0518 19.2031 24.5018C19.2031 23.9518 18.7531 23.5018 18.2031 23.5018ZM32.0831 29.7918L28.9631 26.6718C28.1031 27.2318 27.0731 27.5518 25.9631 27.4918C23.5931 27.3818 21.5631 25.5318 21.2431 23.1818C20.8031 19.8318 23.6931 17.0018 27.0731 17.5718C29.0231 17.9018 30.6431 19.4218 31.0731 21.3518C31.4031 22.8118 31.0831 24.1718 30.3731 25.2518L33.5031 28.3818C33.8931 28.7718 33.8931 29.4018 33.5031 29.7918C33.1131 30.1818 32.4731 30.1818 32.0831 29.7918ZM29.2031 22.5018C29.2031 20.8518 27.8531 19.5018 26.2031 19.5018C24.5531 19.5018 23.2031 20.8518 23.2031 22.5018C23.2031 24.1518 24.5531 25.5018 26.2031 25.5018C27.8531 25.5018 29.2031 24.1518 29.2031 22.5018ZM15.2031 30.5018H23.2031C23.7531 30.5018 24.2031 30.0518 24.2031 29.5018C24.2031 28.9518 23.7531 28.5018 23.2031 28.5018H15.2031C14.6531 28.5018 14.2031 28.9518 14.2031 29.5018C14.2031 30.0518 14.6531 30.5018 15.2031 30.5018Z" fill="#212121"/>
<rect x="0.5" y="0.5" width="47" height="47" rx="23.5" stroke="#212121"/>
</svg>
