<svg width="48" height="48" viewBox="0 0 48 48" fill="none" xmlns="http://www.w3.org/2000/svg">
<path d="M23.19 13.2662L16.19 16.3762C15.47 16.6962 15 17.4163 15 18.2063V22.9062C15 28.4563 18.84 33.6462 24 34.9062C29.16 33.6462 33 28.4563 33 22.9062V18.2063C33 17.4163 32.53 16.6962 31.81 16.3762L24.81 13.2662C24.3 13.0362 23.7 13.0362 23.19 13.2662ZM24 23.8962H31C30.47 28.0162 27.72 31.6863 24 32.8363V23.9062H17V18.2063L24 15.0963V23.8962Z" fill="#212121"/>
<rect x="0.5" y="0.5" width="47" height="47" rx="23.5" stroke="#212121"/>
</svg>
