<svg width="24" height="24" viewBox="0 0 24 24" xmlns="http://www.w3.org/2000/svg">
<path d="M19.7109 3.36361L2.24269 8.29055C2.09574 8.332 1.96493 8.41732 1.86776 8.53509C1.77059 8.65287 1.71169 8.79751 1.69892 8.94966C1.68615 9.10182 1.72012 9.25424 1.7963 9.38657C1.87248 9.5189 1.98723 9.62483 2.12523 9.69019L10.1512 13.492C10.3078 13.5661 10.4338 13.6922 10.508 13.8487L14.3098 21.8747C14.3751 22.0127 14.4811 22.1275 14.6134 22.2037C14.7457 22.2798 14.8981 22.3138 15.0503 22.301C15.2025 22.2883 15.3471 22.2294 15.4649 22.1322C15.5826 22.035 15.668 21.9042 15.7094 21.7573L20.6363 4.28904C20.6725 4.16073 20.6739 4.02509 20.6402 3.89609C20.6066 3.76709 20.5391 3.64939 20.4448 3.55512C20.3506 3.46085 20.2329 3.39341 20.1039 3.35975C19.9749 3.32609 19.8392 3.32742 19.7109 3.36361Z" stroke-width="2" stroke-linecap="round" stroke-linejoin="round"/>
<path d="M10.3933 13.6067L14.636 9.36401" stroke-width="2" stroke-linecap="round" stroke-linejoin="round"/>
</svg>
