<svg width="20" height="20" viewBox="0 0 20 20" fill="none" xmlns="http://www.w3.org/2000/svg">
<path d="M15.8327 6.66699H4.16602C3.70768 6.66699 3.33268 6.29199 3.33268 5.83366C3.33268 5.37533 3.70768 5.00033 4.16602 5.00033H15.8327C16.291 5.00033 16.666 5.37533 16.666 5.83366C16.666 6.29199 16.291 6.66699 15.8327 6.66699ZM14.166 1.66699H5.83268C5.37435 1.66699 4.99935 2.04199 4.99935 2.50033C4.99935 2.95866 5.37435 3.33366 5.83268 3.33366H14.166C14.6243 3.33366 14.9993 2.95866 14.9993 2.50033C14.9993 2.04199 14.6243 1.66699 14.166 1.66699ZM18.3327 10.0003V16.667C18.3327 17.5837 17.5827 18.3337 16.666 18.3337H3.33268C2.41602 18.3337 1.66602 17.5837 1.66602 16.667V10.0003C1.66602 9.08366 2.41602 8.33366 3.33268 8.33366H16.666C17.5827 8.33366 18.3327 9.08366 18.3327 10.0003ZM12.6577 12.967L8.33268 10.6087V16.0503L12.6577 13.7003C12.9493 13.542 12.9493 13.1253 12.6577 12.967Z" fill="#0A0939"/>
</svg>
