<svg width="48" height="48" viewBox="0 0 48 48" fill="none" xmlns="http://www.w3.org/2000/svg">
<rect x="0.5" y="0.5" width="47" height="47" rx="23.5" fill="#212121"/>
<path d="M17.737 16.7999C17.6354 16.8015 17.5384 16.8426 17.4666 16.9144L15.1202 19.2608C15.0827 19.2968 15.0527 19.34 15.0321 19.3877C15.0115 19.4355 15.0005 19.4869 15 19.5389C14.9995 19.5909 15.0093 19.6425 15.029 19.6907C15.0487 19.7389 15.0778 19.7826 15.1145 19.8194C15.1513 19.8562 15.1951 19.8853 15.2433 19.905C15.2914 19.9246 15.343 19.9345 15.3951 19.934C15.4471 19.9334 15.4985 19.9225 15.5463 19.9019C15.594 19.8812 15.6372 19.8513 15.6732 19.8137L17.352 18.1349V26.6061C17.352 28.54 18.9376 30.1256 20.8715 30.1256C22.8055 30.1256 24.3911 28.54 24.3911 26.6061V21.1015C24.3911 19.5941 25.6211 18.3641 27.1285 18.3641C28.6358 18.3641 29.8659 19.5941 29.8659 21.1015V29.5726L28.1871 27.8938C28.1506 27.8564 28.107 27.8266 28.0589 27.8063C28.0108 27.7859 27.959 27.7754 27.9068 27.7754C27.829 27.7755 27.7529 27.7987 27.6884 27.8421C27.6239 27.8856 27.5738 27.9473 27.5445 28.0194C27.5152 28.0914 27.5081 28.1706 27.5241 28.2468C27.54 28.3229 27.5783 28.3925 27.6341 28.4468L29.9804 30.7932C30.0538 30.8665 30.1532 30.9076 30.2569 30.9076C30.3606 30.9076 30.4601 30.8665 30.5334 30.7932L32.8798 28.4468C32.9173 28.4108 32.9473 28.3676 32.9679 28.3199C32.9885 28.2721 32.9994 28.2207 33 28.1687C33.0005 28.1166 32.9907 28.065 32.971 28.0169C32.9513 27.9687 32.9222 27.9249 32.8854 27.8881C32.8487 27.8514 32.8049 27.8223 32.7567 27.8026C32.7086 27.7829 32.6569 27.7731 32.6049 27.7736C32.5529 27.7741 32.5015 27.785 32.4537 27.8057C32.406 27.8263 32.3628 27.8563 32.3268 27.8938L30.648 29.5726V21.1015C30.648 19.217 29.1346 17.6885 27.2682 17.6102C27.2238 17.5923 27.1764 17.5827 27.1285 17.582C25.1945 17.582 23.6089 19.1675 23.6089 21.1015V26.6061C23.6089 28.1134 22.3789 29.3435 20.8715 29.3435C19.3642 29.3435 18.1341 28.1134 18.1341 26.6061V18.1349L19.8129 19.8137C19.849 19.8513 19.8921 19.8812 19.9399 19.9019C19.9876 19.9225 20.039 19.9334 20.0911 19.934C20.1431 19.9345 20.1947 19.9246 20.2429 19.905C20.291 19.8853 20.3348 19.8562 20.3716 19.8194C20.4084 19.7826 20.4375 19.7389 20.4571 19.6907C20.4768 19.6425 20.4867 19.5909 20.4861 19.5389C20.4856 19.4869 20.4747 19.4355 20.454 19.3877C20.4334 19.34 20.4034 19.2968 20.3659 19.2608L18.0196 16.9144C17.9825 16.8774 17.9384 16.8481 17.8899 16.8285C17.8413 16.8088 17.7893 16.799 17.737 16.7999Z" fill="white"/>
<path fill-rule="evenodd" clip-rule="evenodd" d="M17.7312 16.4249C17.8338 16.4233 17.9357 16.4424 18.0308 16.4809C18.1259 16.5195 18.2122 16.5767 18.2848 16.6493L20.6288 18.9933C20.7008 19.0633 20.7584 19.1467 20.7983 19.2389C20.8387 19.3325 20.8601 19.4332 20.8611 19.5351C20.8621 19.637 20.8428 19.7381 20.8043 19.8325C20.7658 19.9268 20.7088 20.0125 20.6368 20.0846C20.5647 20.1567 20.479 20.2136 20.3846 20.2521C20.2903 20.2907 20.1892 20.31 20.0873 20.3089C19.9853 20.3079 19.8847 20.2865 19.7911 20.2461C19.6989 20.2063 19.6155 20.1487 19.5455 20.0766L18.5091 19.0403V26.6061C18.5091 27.9063 19.5713 28.9685 20.8715 28.9685C22.1718 28.9685 23.2339 27.9063 23.2339 26.6061V21.1015C23.2339 18.9604 24.9874 17.207 27.1285 17.207H27.1345C27.2039 17.2081 27.2727 17.2187 27.339 17.2382C29.3752 17.3521 31.023 19.029 31.023 21.1015V28.6673L32.0594 27.6309C32.1294 27.5589 32.2128 27.5013 32.305 27.4615C32.3985 27.421 32.4992 27.3997 32.6011 27.3986C32.703 27.3976 32.8041 27.4169 32.8985 27.4554C32.9928 27.4939 33.0785 27.5509 33.1506 27.623C33.2227 27.695 33.2796 27.7808 33.3182 27.8751C33.3567 27.9695 33.376 28.0706 33.375 28.1725C33.3739 28.2744 33.3526 28.3751 33.3121 28.4686C33.2723 28.5608 33.2147 28.6443 33.1427 28.7142L30.7986 31.0583C30.6549 31.2019 30.46 31.2826 30.2569 31.2826C30.0538 31.2826 29.859 31.202 29.7153 31.0584L27.3704 28.7135C27.2624 28.6075 27.1881 28.4719 27.1571 28.3237C27.1258 28.1745 27.1397 28.0195 27.1971 27.8783C27.2544 27.7371 27.3526 27.6162 27.479 27.5311C27.6054 27.446 27.7543 27.4005 27.9067 27.4004C28.009 27.4004 28.1105 27.421 28.2048 27.4608C28.2982 27.5002 28.3828 27.5578 28.4538 27.6302L29.4909 28.6673V21.1015C29.4909 19.8012 28.4287 18.7391 27.1285 18.7391C25.8282 18.7391 24.7661 19.8012 24.7661 21.1015V26.6061C24.7661 28.7472 23.0126 30.5006 20.8715 30.5006C18.7305 30.5006 16.977 28.7472 16.977 26.6061V19.0403L15.9406 20.0767C15.8707 20.1487 15.7872 20.2063 15.695 20.2461C15.6015 20.2865 15.5008 20.3079 15.3989 20.3089C15.297 20.31 15.1959 20.2907 15.1015 20.2521C15.0072 20.2136 14.9215 20.1567 14.8494 20.0846C14.7773 20.0125 14.7204 19.9268 14.6818 19.8325C14.6433 19.7381 14.624 19.637 14.625 19.5351C14.6261 19.4332 14.6474 19.3325 14.6879 19.2389C14.7277 19.1468 14.7853 19.0633 14.8573 18.9934L17.2014 16.6493C17.2014 16.6493 17.2013 16.6493 17.2014 16.6493C17.342 16.5086 17.5323 16.4281 17.7312 16.4249ZM17.4666 16.9144L15.1202 19.2608C15.0827 19.2968 15.0527 19.34 15.0321 19.3877C15.0115 19.4355 15.0005 19.4869 15 19.5389C14.9995 19.5909 15.0093 19.6425 15.029 19.6907C15.0487 19.7389 15.0778 19.7826 15.1145 19.8194C15.1513 19.8562 15.1951 19.8853 15.2433 19.905C15.2914 19.9246 15.343 19.9345 15.3951 19.934C15.4471 19.9334 15.4985 19.9225 15.5463 19.9019C15.594 19.8812 15.6372 19.8513 15.6732 19.8137L17.352 18.1349V26.6061C17.352 28.54 18.9376 30.1256 20.8715 30.1256C22.8055 30.1256 24.3911 28.54 24.3911 26.6061V21.1015C24.3911 19.5941 25.6211 18.3641 27.1285 18.3641C28.6358 18.3641 29.8659 19.5941 29.8659 21.1015V29.5726L28.1871 27.8938C28.1506 27.8564 28.107 27.8266 28.0589 27.8063C28.0108 27.7859 27.959 27.7754 27.9068 27.7754C27.829 27.7755 27.7529 27.7987 27.6884 27.8421C27.6239 27.8856 27.5738 27.9473 27.5445 28.0194C27.5152 28.0914 27.5081 28.1706 27.5241 28.2468C27.54 28.3229 27.5783 28.3926 27.6341 28.4468L29.9804 30.7932C30.0538 30.8665 30.1532 30.9076 30.2569 30.9076C30.3606 30.9076 30.4601 30.8665 30.5334 30.7932L32.8798 28.4468C32.9173 28.4108 32.9473 28.3676 32.9679 28.3199C32.9885 28.2721 32.9994 28.2207 33 28.1687C33.0005 28.1166 32.9907 28.065 32.971 28.0169C32.9513 27.9687 32.9222 27.9249 32.8854 27.8881C32.8487 27.8514 32.8049 27.8223 32.7567 27.8026C32.7086 27.7829 32.6569 27.7731 32.6049 27.7736C32.5529 27.7741 32.5015 27.785 32.4537 27.8057C32.406 27.8263 32.3628 27.8563 32.3268 27.8938L30.648 29.5726V21.1015C30.648 19.217 29.1346 17.6885 27.2682 17.6102C27.2238 17.5923 27.1764 17.5827 27.1285 17.582C25.1945 17.582 23.6089 19.1675 23.6089 21.1015V26.6061C23.6089 28.1134 22.3789 29.3435 20.8715 29.3435C19.3642 29.3435 18.1341 28.1134 18.1341 26.6061V18.1349L19.8129 19.8137C19.849 19.8513 19.8921 19.8812 19.9399 19.9019C19.9876 19.9225 20.039 19.9334 20.0911 19.934C20.1431 19.9345 20.1947 19.9246 20.2429 19.905C20.291 19.8853 20.3348 19.8562 20.3716 19.8194C20.4084 19.7826 20.4375 19.7389 20.4571 19.6907C20.4768 19.6425 20.4867 19.5909 20.4861 19.5389C20.4856 19.4869 20.4747 19.4355 20.454 19.3877C20.4334 19.34 20.4034 19.2968 20.3659 19.2608L18.0196 16.9144C17.9825 16.8774 17.9384 16.8481 17.8899 16.8285C17.8413 16.8088 17.7893 16.799 17.737 16.7999C17.6354 16.8015 17.5384 16.8426 17.4666 16.9144Z" fill="white"/>
<rect x="0.5" y="0.5" width="47" height="47" rx="23.5" stroke="#383838"/>
</svg>
