<svg width="24" height="24" viewBox="0 0 24 24" fill="none" xmlns="http://www.w3.org/2000/svg">
<path d="M5.73696 4.79985C5.63537 4.80147 5.53841 4.84256 5.46658 4.91442L3.12023 7.26077C3.0827 7.2968 3.05274 7.33996 3.0321 7.38772C3.01145 7.43548 3.00055 7.48688 3.00002 7.5389C2.99949 7.59093 3.00935 7.64254 3.02901 7.69071C3.04868 7.73888 3.07776 7.78264 3.11455 7.81943C3.15134 7.85622 3.1951 7.8853 3.24327 7.90497C3.29144 7.92463 3.34305 7.93449 3.39508 7.93396C3.4471 7.93343 3.4985 7.92253 3.54626 7.90188C3.59402 7.88124 3.63718 7.85128 3.67321 7.81375L5.35201 6.13495V14.6061C5.35201 16.54 6.93758 18.1256 8.87153 18.1256C10.8055 18.1256 12.3911 16.54 12.3911 14.6061V9.10149C12.3911 7.59414 13.6211 6.36408 15.1285 6.36408C16.6358 6.36408 17.8659 7.59414 17.8659 9.10149V17.5726L16.1871 15.8938C16.1506 15.8564 16.107 15.8266 16.0589 15.8063C16.0108 15.7859 15.959 15.7754 15.9068 15.7754C15.829 15.7755 15.7529 15.7987 15.6884 15.8421C15.6239 15.8856 15.5738 15.9473 15.5445 16.0194C15.5152 16.0914 15.5081 16.1706 15.5241 16.2468C15.54 16.3229 15.5783 16.3925 15.6341 16.4468L17.9804 18.7932C18.0538 18.8665 18.1532 18.9076 18.2569 18.9076C18.3606 18.9076 18.4601 18.8665 18.5334 18.7932L20.8798 16.4468C20.9173 16.4108 20.9473 16.3676 20.9679 16.3199C20.9885 16.2721 20.9994 16.2207 21 16.1687C21.0005 16.1166 20.9907 16.065 20.971 16.0169C20.9513 15.9687 20.9222 15.9249 20.8854 15.8881C20.8487 15.8514 20.8049 15.8223 20.7567 15.8026C20.7086 15.7829 20.6569 15.7731 20.6049 15.7736C20.5529 15.7741 20.5015 15.785 20.4537 15.8057C20.406 15.8263 20.3628 15.8563 20.3268 15.8938L18.648 17.5726V9.10149C18.648 7.217 17.1346 5.68848 15.2682 5.61023C15.2238 5.59232 15.1764 5.58274 15.1285 5.58197C13.1945 5.58197 11.6089 7.16753 11.6089 9.10149V14.6061C11.6089 16.1134 10.3789 17.3435 8.87153 17.3435C7.36418 17.3435 6.13413 16.1134 6.13413 14.6061V6.13495L7.81293 7.81375C7.84896 7.85128 7.89212 7.88124 7.93988 7.90188C7.98764 7.92253 8.03904 7.93343 8.09107 7.93396C8.14309 7.93449 8.1947 7.92463 8.24287 7.90497C8.29104 7.8853 8.3348 7.85622 8.37159 7.81943C8.40839 7.78264 8.43746 7.73888 8.45713 7.69071C8.4768 7.64254 8.48665 7.59093 8.48612 7.5389C8.4856 7.48688 8.47469 7.43548 8.45405 7.38772C8.4334 7.33996 8.40344 7.2968 8.36591 7.26077L6.01956 4.91442C5.98253 4.87737 5.93843 4.84814 5.88989 4.82846C5.84134 4.80878 5.78934 4.79905 5.73696 4.79985Z" fill="white"/>
<path fill-rule="evenodd" clip-rule="evenodd" d="M5.73122 4.42489C5.83382 4.42332 5.93568 4.44238 6.03078 4.48093C6.12587 4.51948 6.21225 4.57674 6.28479 4.64931L8.62882 6.99334C8.70084 7.0633 8.75842 7.14675 8.79827 7.23894C8.8387 7.33249 8.86007 7.43317 8.8611 7.53509C8.86214 7.637 8.84283 7.7381 8.80431 7.83245C8.76579 7.92681 8.70883 8.01253 8.63676 8.0846C8.56469 8.15666 8.47897 8.21363 8.38461 8.25215C8.29026 8.29067 8.18916 8.30998 8.08725 8.30894C7.98534 8.3079 7.88466 8.28654 7.7911 8.24611C7.69891 8.20626 7.61546 8.14868 7.5455 8.07665L6.50913 7.04028V14.6061C6.50913 15.9063 7.57129 16.9685 8.87153 16.9685C10.1718 16.9685 11.2339 15.9063 11.2339 14.6061V9.10149C11.2339 6.96042 12.9874 5.20697 15.1285 5.20697H15.1345C15.2039 5.20809 15.2727 5.21867 15.339 5.23825C17.3752 5.35214 19.023 7.02901 19.023 9.10149V16.6673L20.0594 15.6309C20.1294 15.5589 20.2128 15.5013 20.305 15.4615C20.3985 15.421 20.4992 15.3997 20.6011 15.3986C20.703 15.3976 20.8041 15.4169 20.8985 15.4554C20.9928 15.4939 21.0785 15.5509 21.1506 15.623C21.2227 15.695 21.2796 15.7808 21.3182 15.8751C21.3567 15.9695 21.376 16.0706 21.375 16.1725C21.3739 16.2744 21.3526 16.3751 21.3121 16.4686C21.2723 16.5608 21.2147 16.6443 21.1427 16.7142L18.7986 19.0583C18.6549 19.2019 18.46 19.2826 18.2569 19.2826C18.0538 19.2826 17.859 19.202 17.7153 19.0584L15.3704 16.7135C15.2624 16.6075 15.1881 16.4719 15.1571 16.3237C15.1258 16.1745 15.1397 16.0195 15.1971 15.8783C15.2544 15.7371 15.3526 15.6162 15.479 15.5311C15.6054 15.446 15.7543 15.4005 15.9067 15.4004C16.009 15.4004 16.1105 15.421 16.2048 15.4608C16.2982 15.5002 16.3828 15.5578 16.4538 15.6302L17.4909 16.6673V9.10149C17.4909 7.80124 16.4287 6.73908 15.1285 6.73908C13.8282 6.73908 12.7661 7.80124 12.7661 9.10149V14.6061C12.7661 16.7472 11.0126 18.5006 8.87153 18.5006C6.73047 18.5006 4.97701 16.7472 4.97701 14.6061V7.04028L3.94063 8.07666C3.87067 8.14868 3.78723 8.20626 3.69504 8.24611C3.60148 8.28654 3.5008 8.3079 3.39889 8.30894C3.29698 8.30998 3.19588 8.29067 3.10153 8.25215C3.00717 8.21362 2.92145 8.15666 2.84938 8.0846C2.77732 8.01253 2.72036 7.92681 2.68183 7.83245C2.64331 7.7381 2.624 7.637 2.62504 7.53509C2.62608 7.43318 2.64744 7.3325 2.68787 7.23894C2.72772 7.14675 2.7853 7.06331 2.85732 6.99335L5.20135 4.64932C5.20137 4.6493 5.20133 4.64934 5.20135 4.64932C5.34204 4.5086 5.53226 4.42807 5.73122 4.42489ZM5.46658 4.91442L3.12023 7.26077C3.0827 7.2968 3.05274 7.33996 3.0321 7.38772C3.01145 7.43548 3.00055 7.48688 3.00002 7.5389C2.99949 7.59093 3.00935 7.64254 3.02901 7.69071C3.04868 7.73888 3.07776 7.78264 3.11455 7.81943C3.15134 7.85622 3.1951 7.8853 3.24327 7.90497C3.29144 7.92463 3.34305 7.93449 3.39508 7.93396C3.4471 7.93343 3.4985 7.92252 3.54626 7.90188C3.59402 7.88124 3.63718 7.85128 3.67321 7.81375L5.35201 6.13495V14.6061C5.35201 16.54 6.93757 18.1256 8.87153 18.1256C10.8055 18.1256 12.3911 16.54 12.3911 14.6061V9.10149C12.3911 7.59414 13.6211 6.36408 15.1285 6.36408C16.6358 6.36408 17.8659 7.59414 17.8659 9.10149V17.5726L16.1871 15.8938C16.1506 15.8564 16.107 15.8266 16.0589 15.8063C16.0108 15.7859 15.959 15.7754 15.9068 15.7754C15.829 15.7755 15.7529 15.7987 15.6884 15.8421C15.6239 15.8856 15.5738 15.9473 15.5445 16.0194C15.5152 16.0914 15.5081 16.1706 15.5241 16.2468C15.54 16.3229 15.5783 16.3926 15.6341 16.4468L17.9804 18.7932C18.0538 18.8665 18.1532 18.9076 18.2569 18.9076C18.3606 18.9076 18.4601 18.8665 18.5334 18.7932L20.8798 16.4468C20.9173 16.4108 20.9473 16.3676 20.9679 16.3199C20.9885 16.2721 20.9994 16.2207 21 16.1687C21.0005 16.1166 20.9907 16.065 20.971 16.0169C20.9513 15.9687 20.9222 15.9249 20.8854 15.8881C20.8487 15.8514 20.8049 15.8223 20.7567 15.8026C20.7086 15.7829 20.6569 15.7731 20.6049 15.7736C20.5529 15.7741 20.5015 15.785 20.4537 15.8057C20.406 15.8263 20.3628 15.8563 20.3268 15.8938L18.648 17.5726V9.10149C18.648 7.217 17.1346 5.68848 15.2682 5.61023C15.2238 5.59232 15.1764 5.58274 15.1285 5.58197C13.1945 5.58197 11.6089 7.16753 11.6089 9.10149V14.6061C11.6089 16.1134 10.3789 17.3435 8.87153 17.3435C7.36418 17.3435 6.13413 16.1134 6.13413 14.6061V6.13495L7.81293 7.81375C7.84896 7.85128 7.89212 7.88124 7.93988 7.90188C7.98764 7.92253 8.03904 7.93343 8.09107 7.93396C8.14309 7.93449 8.1947 7.92463 8.24287 7.90497C8.29104 7.8853 8.3348 7.85622 8.37159 7.81943C8.40839 7.78264 8.43746 7.73888 8.45713 7.69071C8.4768 7.64254 8.48665 7.59093 8.48612 7.5389C8.4856 7.48688 8.47469 7.43548 8.45405 7.38772C8.4334 7.33996 8.40344 7.2968 8.36591 7.26077L6.01956 4.91442C5.98253 4.87737 5.93843 4.84814 5.88989 4.82846C5.84134 4.80878 5.78934 4.79905 5.73696 4.79985C5.63537 4.80147 5.53841 4.84256 5.46658 4.91442Z" fill="white"/>
</svg>
