<svg width="32" height="32" viewBox="0 0 32 32" fill="none" xmlns="http://www.w3.org/2000/svg">
<path d="M17.2933 3.57047C16.4933 3.11714 15.5067 3.11714 14.7067 3.57047L5.37333 8.75714L12.1333 12.5038C13.1067 11.4905 14.48 10.8505 16 10.8505C17.52 10.8505 18.8933 11.4905 19.8667 12.5038L26.6267 8.7438L17.2933 3.57047ZM13.3333 16.1838C13.3333 14.7171 14.5333 13.5171 16 13.5171C17.4667 13.5171 18.6667 14.7171 18.6667 16.1838C18.6667 17.6505 17.4667 18.8505 16 18.8505C14.5333 18.8505 13.3333 17.6505 13.3333 16.1838ZM4 11.0371L10.84 14.8371C10.72 15.2638 10.6667 15.7171 10.6667 16.1838C10.6667 18.6638 12.36 20.7571 14.6667 21.3438V28.7705L5.37333 23.6105C4.52 23.1438 4 22.2505 4 21.2771V11.0371ZM17.3333 28.7705V21.3438C19.64 20.7571 21.3333 18.6638 21.3333 16.1838C21.3333 15.7171 21.28 15.2638 21.16 14.8371L28 11.0371V21.2771C28 22.2505 27.48 23.1438 26.6267 23.6105L17.3333 28.7705Z" fill="white"/>
</svg>
