<svg width="40" height="40" viewBox="0 0 40 40" fill="none" xmlns="http://www.w3.org/2000/svg">
<rect width="40" height="40" rx="20" fill="#696969"/>
<path d="M21.2933 7.57047C20.4933 7.11714 19.5067 7.11714 18.7067 7.57047L9.37333 12.7571L16.1333 16.5038C17.1067 15.4905 18.48 14.8505 20 14.8505C21.52 14.8505 22.8933 15.4905 23.8667 16.5038L30.6267 12.7438L21.2933 7.57047ZM17.3333 20.1838C17.3333 18.7171 18.5333 17.5171 20 17.5171C21.4667 17.5171 22.6667 18.7171 22.6667 20.1838C22.6667 21.6505 21.4667 22.8505 20 22.8505C18.5333 22.8505 17.3333 21.6505 17.3333 20.1838ZM8 15.0371L14.84 18.8371C14.72 19.2638 14.6667 19.7171 14.6667 20.1838C14.6667 22.6638 16.36 24.7571 18.6667 25.3438V32.7705L9.37333 27.6105C8.52 27.1438 8 26.2505 8 25.2771V15.0371ZM21.3333 32.7705V25.3438C23.64 24.7571 25.3333 22.6638 25.3333 20.1838C25.3333 19.7171 25.28 19.2638 25.16 18.8371L32 15.0371V25.2771C32 26.2505 31.48 27.1438 30.6267 27.6105L21.3333 32.7705Z" fill="white"/>
</svg>
