<svg width="40" height="40" viewBox="0 0 40 40" fill="none" xmlns="http://www.w3.org/2000/svg">
<rect width="40" height="40" rx="20" fill="url(#paint0_linear_1624_23961)"/>
<path d="M31.5538 18.7398L26.2794 13.4482L26.2622 13.4309C26.2277 13.3964 26.2104 13.3792 26.176 13.3447C26.1587 13.3275 26.1415 13.3275 26.1243 13.3103C26.107 13.293 26.0726 13.2758 26.0553 13.2585C26.0381 13.2413 26.0208 13.2413 26.0036 13.2241C25.9864 13.2068 25.9519 13.1896 25.9347 13.1896C25.9174 13.1724 25.9002 13.1724 25.8829 13.1551C25.8657 13.1379 25.8312 13.1379 25.814 13.1207C25.7968 13.1207 25.7795 13.1034 25.7623 13.1034C25.7278 13.0862 25.7106 13.0862 25.6761 13.0689C25.6589 13.0689 25.6416 13.0517 25.6244 13.0517C25.5899 13.0517 25.5727 13.0345 25.5382 13.0345C25.521 13.0345 25.5037 13.0345 25.4693 13.0172C25.4348 13.0172 25.4176 13 25.3831 13C25.3486 13 25.3141 13 25.2797 13C25.2624 13 25.2452 13 25.228 13C25.2107 13 25.2107 13 25.1935 13C25.159 13 25.1245 13 25.0901 13C25.0728 13 25.0384 13 25.0211 13.0172C25.0039 13.0172 24.9694 13.0172 24.9522 13.0345C24.9177 13.0345 24.9005 13.0517 24.8832 13.0517C24.866 13.0517 24.8315 13.0689 24.8143 13.0689C24.797 13.0689 24.7626 13.0862 24.7453 13.0862C24.7281 13.0862 24.6936 13.1034 24.6764 13.1034C24.6592 13.1207 24.6419 13.1207 24.6074 13.1379C24.5902 13.1551 24.5557 13.1551 24.5385 13.1724C24.5213 13.1896 24.504 13.1896 24.4868 13.2068C24.4695 13.2241 24.4351 13.2413 24.4178 13.2585C24.4006 13.2758 24.3834 13.293 24.3661 13.293C24.3489 13.3103 24.3317 13.3275 24.2972 13.3447C24.2627 13.362 24.2455 13.3964 24.211 13.4309L24.1938 13.4482L16.2132 21.4287V14.5168C16.2132 13.6895 15.541 13 14.6964 13C13.8691 13 13.1796 13.6722 13.1796 14.5168V21.4804L10.5769 18.8777C9.99082 18.2916 9.02558 18.2916 8.43953 18.8777C7.85349 19.4637 7.85349 20.429 8.43953 21.015L13.5933 26.1687C13.8863 26.4618 14.2827 26.6169 14.6619 26.6169H14.6792H14.6964C15.1963 26.6169 15.6444 26.3756 15.9202 25.9791L23.7456 18.1537V25.1001C23.7456 25.9274 24.4178 26.6169 25.2624 26.6169C26.0898 26.6169 26.7792 25.9447 26.7792 25.1001V18.1537L29.4682 20.8426C30.0542 21.4287 31.0194 21.4287 31.6055 20.8426C32.1398 20.2738 32.1398 19.3258 31.5538 18.7398Z" fill="white"/>
<defs>
<linearGradient id="paint0_linear_1624_23961" x1="0" y1="20" x2="40" y2="20" gradientUnits="userSpaceOnUse">
<stop stop-color="#008DFB"/>
<stop offset="1" stop-color="#0058E9"/>
</linearGradient>
</defs>
</svg>
