<svg width="16" height="16" viewBox="0 0 16 16" fill="none" xmlns="http://www.w3.org/2000/svg">
<path d="M11.0982 4.70241L12.0582 5.66241L8.80489 8.91574L6.61156 6.72241C6.35156 6.46241 5.93156 6.46241 5.67156 6.72241L1.67156 10.7291C1.41156 10.9891 1.41156 11.4091 1.67156 11.6691C1.93156 11.9291 2.35156 11.9291 2.61156 11.6691L6.13823 8.13574L8.33156 10.3291C8.59156 10.5891 9.01156 10.5891 9.27156 10.3291L12.9982 6.60908L13.9582 7.56908C14.1649 7.77574 14.5249 7.62908 14.5249 7.33574V4.46908C14.5316 4.28241 14.3849 4.13574 14.1982 4.13574H11.3382C11.0382 4.13574 10.8916 4.49574 11.0982 4.70241Z" fill="black"/>
</svg>
