<svg width="36" height="36" viewBox="0 0 36 36" fill="none" xmlns="http://www.w3.org/2000/svg">
<rect width="36" height="36" rx="18" fill="white"/>
<g clip-path="url(#clip0_3538_28023)">
<path d="M25.8986 13.0284C25.9107 13.2411 25.9107 13.4538 25.9107 13.6686C25.9107 20.2107 21.8139 27.7558 14.3228 27.7558V27.7519C12.1099 27.7558 9.94298 26.9852 8.08008 25.5323C8.40185 25.5793 8.72524 25.6029 9.04943 25.6038C10.8833 25.6058 12.6648 24.8578 14.1075 23.4803C12.3648 23.4401 10.8365 22.0588 10.3027 20.0421C10.9131 20.1852 11.5422 20.1558 12.1414 19.9568C10.2414 19.4901 8.87443 17.4607 8.87443 15.1038V15.0411C9.44056 15.4244 10.0744 15.6372 10.7228 15.6607C8.9333 14.2068 8.38169 11.3127 9.46234 9.04993C11.5301 12.1431 14.5809 14.0235 17.8559 14.2225C17.5277 12.5029 17.976 10.7009 19.0341 9.49208C20.6744 7.61757 23.2543 7.71365 24.7962 9.70679C25.7083 9.48816 26.5825 9.0813 27.3825 8.50483C27.0785 9.65091 26.4422 10.6244 25.5922 11.2431C26.3994 11.1274 27.1881 10.8646 27.9309 10.4637C27.3841 11.4597 26.6954 12.3274 25.8986 13.0284Z" fill="#1D9BF0"/>
</g>
<defs>
<clipPath id="clip0_3538_28023">
<rect width="20" height="20" fill="white" transform="translate(8 8)"/>
</clipPath>
</defs>
</svg>
