<svg width="24" height="24" viewBox="0 0 24 24" xmlns="http://www.w3.org/2000/svg">
<path d="M12 8.25027C12.0001 7.38867 12.2968 6.55337 12.8403 5.8848C13.3838 5.21624 14.1409 4.75517 14.9843 4.57913C15.8277 4.40309 16.7061 4.5228 17.4716 4.91814C18.2371 5.31348 18.8432 5.96034 19.188 6.74997L22.5 6.75L19.4754 9.77461C19.2785 12.8168 17.9311 15.67 15.707 17.7548C13.4828 19.8397 10.5486 20.9999 7.50002 21C4.50002 21 3.75002 19.875 3.75002 19.875C3.75002 19.875 6.75002 18.75 8.25002 16.5C8.25002 16.5 2.25002 13.5 3.75002 5.25C3.75002 5.25 7.50002 9 11.9987 9.75L12 8.25027Z"/>
<path d="M12 8.25027C12.0001 7.38867 12.2968 6.55337 12.8403 5.8848C13.3838 5.21624 14.1409 4.75517 14.9843 4.57913C15.8277 4.40309 16.7061 4.5228 17.4716 4.91814C18.2371 5.31348 18.8432 5.96034 19.188 6.74997L22.5 6.75L19.4754 9.77461C19.2785 12.8168 17.9311 15.67 15.707 17.7548C13.4828 19.8397 10.5486 20.9999 7.50002 21C4.50002 21 3.75002 19.875 3.75002 19.875C3.75002 19.875 6.75002 18.75 8.25002 16.5C8.25002 16.5 2.25002 13.5 3.75002 5.25C3.75002 5.25 7.50002 9 11.9987 9.75L12 8.25027Z" stroke-width="2" stroke-linecap="round" stroke-linejoin="round"/>
</svg>
