<svg width="72" height="40" viewBox="0 0 72 40" fill="none" xmlns="http://www.w3.org/2000/svg">
<path d="M60.6662 10.975C58.1763 9.4193 54.8984 9.78993 51.9749 11.6269C49.0606 9.78993 45.7807 9.4193 43.2939 10.975C39.36 13.4333 38.8818 19.7647 42.2266 25.1171C44.6921 29.0632 48.5478 31.3754 51.98 31.3328C55.4123 31.3754 59.2679 29.0632 61.7334 25.1172C65.0743 19.7647 64.6001 13.4334 60.6661 10.975H60.6662ZM44.0351 23.9869C43.3454 22.8936 42.825 21.7022 42.4916 20.4531C42.1954 19.369 42.0822 18.243 42.1565 17.1215C42.3059 15.1434 43.1111 13.6029 44.423 12.7835C45.735 11.964 47.4694 11.9143 49.3165 12.6474C49.5937 12.7581 49.8679 12.8861 50.14 13.0272C49.1136 13.9631 48.2211 15.036 47.4877 16.2157C45.4567 19.4652 44.8373 23.0812 45.5462 25.964C44.981 25.3544 44.475 24.6924 44.0351 23.9869ZM61.4695 20.4522C61.1356 21.7011 60.6153 22.8924 59.9259 23.986C59.4857 24.6924 58.9798 25.3557 58.4149 25.9671C59.0486 23.3828 58.618 20.2166 57.0644 17.2474C57.0396 17.1985 57.0048 17.1554 56.9622 17.1208C56.9197 17.0861 56.8704 17.0608 56.8175 17.0465C56.7645 17.0321 56.7092 17.029 56.655 17.0374C56.6008 17.0458 56.549 17.0654 56.5028 17.0951L51.6592 20.1212C51.615 20.1487 51.5767 20.1847 51.5464 20.2271C51.5162 20.2695 51.4946 20.3175 51.4829 20.3682C51.4712 20.4189 51.4696 20.4715 51.4783 20.5228C51.4869 20.5742 51.5056 20.6234 51.5332 20.6675L52.2441 21.8038C52.2715 21.8479 52.3075 21.8862 52.3498 21.9164C52.3921 21.9467 52.4399 21.9682 52.4906 21.9799C52.5412 21.9916 52.5937 21.9932 52.645 21.9846C52.6962 21.976 52.7453 21.9573 52.7893 21.9297L55.9291 19.9678C56.0307 20.2724 56.1322 20.5771 56.2084 20.8818C56.5045 21.9645 56.6181 23.0891 56.5445 24.2094C56.3952 26.1865 55.5899 27.7269 54.278 28.5474C53.6013 28.9611 52.8259 29.1855 52.0328 29.1972H51.9324C51.1392 29.1858 50.3638 28.9613 49.6871 28.5474C48.3741 27.7269 47.5689 26.1865 47.4197 24.2094C47.3457 23.0879 47.459 21.9619 47.7547 20.8776C48.4353 18.3691 49.842 16.1177 51.7983 14.4062C52.6419 13.6657 53.6027 13.0706 54.6416 12.6453C56.4836 11.9122 58.221 11.9609 59.534 12.7814C60.847 13.6019 61.6512 15.1413 61.8005 17.1194C61.8758 18.241 61.7639 19.3673 61.4694 20.4521L61.4695 20.4522Z" fill="#1BDBDB"/>
<rect x="32" width="40" height="40" rx="20" fill="white"/>
<path d="M56.1228 12.7441H47.8555V27.6008H56.1228V12.7441Z" fill="#FF5F00"/>
<path d="M48.3806 20.1725C48.3793 18.7417 48.7036 17.3294 49.3288 16.0424C49.954 14.7554 50.8638 13.6276 51.9894 12.7442C50.5955 11.6486 48.9216 10.9673 47.1588 10.7781C45.3961 10.5889 43.6157 10.8994 42.0211 11.6743C40.4265 12.4491 39.0821 13.657 38.1415 15.1597C37.2009 16.6625 36.7021 18.3996 36.7021 20.1725C36.7021 21.9454 37.2009 23.6825 38.1415 25.1853C39.0821 26.6881 40.4265 27.8959 42.0211 28.6707C43.6157 29.4456 45.3961 29.7561 47.1588 29.5669C48.9216 29.3777 50.5955 28.6964 51.9894 27.6008C50.8638 26.7175 49.954 25.5896 49.3288 24.3026C48.7036 23.0157 48.3793 21.6033 48.3806 20.1725Z" fill="#EB001B"/>
<path d="M67.276 20.1725C67.2761 21.9453 66.7773 23.6824 65.8368 25.1852C64.8963 26.688 63.5519 27.8959 61.9574 28.6707C60.3628 29.4456 58.5824 29.7561 56.8197 29.5669C55.057 29.3777 53.3831 28.6964 51.9893 27.6008C53.1138 26.7166 54.0229 25.5885 54.648 24.3018C55.2732 23.015 55.598 21.6031 55.598 20.1725C55.598 18.7419 55.2732 17.33 54.648 16.0433C54.0229 14.7565 53.1138 13.6284 51.9893 12.7442C53.3831 11.6486 55.057 10.9673 56.8197 10.7781C58.5824 10.5889 60.3628 10.8995 61.9574 11.6743C63.5519 12.4491 64.8963 13.657 65.8368 15.1598C66.7773 16.6626 67.2761 18.3997 67.276 20.1725Z" fill="#F79E1B"/>
<path d="M66.3743 26.0274V25.7232H66.4969V25.6612H66.1846V25.7232H66.3073V26.0274H66.3743ZM66.9807 26.0274V25.6606H66.8849L66.7748 25.9129L66.6647 25.6606H66.5689V26.0274H66.6365V25.7507L66.7397 25.9892H66.8098L66.9131 25.7501V26.0274H66.9807Z" fill="#F79E1B"/>
<rect width="40" height="40" rx="20" fill="white"/>
<g clip-path="url(#clip0_1712_23836)">
<path d="M17.8666 25.2069H15.2744L16.8958 15.1816H19.4879L17.8666 25.2069Z" fill="#00579F"/>
<path d="M27.2633 15.4268C26.752 15.224 25.941 15 24.9382 15C22.3783 15 20.5757 16.3651 20.5646 18.3167C20.5434 19.7566 21.8553 20.5564 22.8365 21.0365C23.8394 21.5271 24.1803 21.8473 24.1803 22.2846C24.1701 22.9563 23.3699 23.2659 22.6236 23.2659C21.5886 23.2659 21.0341 23.1062 20.1914 22.7326L19.85 22.5724L19.4873 24.8229C20.0953 25.0999 21.2154 25.3456 22.3783 25.3564C25.0983 25.3564 26.8691 24.0125 26.89 21.9327C26.9004 20.7914 26.2076 19.917 24.7141 19.2024C23.8075 18.7437 23.2522 18.4344 23.2522 17.965C23.2629 17.5384 23.7219 17.1013 24.7453 17.1013C25.588 17.0799 26.2072 17.2825 26.6763 17.4852L26.9107 17.5917L27.2633 15.4268Z" fill="#00579F"/>
<path d="M30.7088 21.6553C30.9223 21.0794 31.7438 18.8503 31.7438 18.8503C31.733 18.8717 31.9568 18.2638 32.0848 17.8905L32.266 18.7544C32.266 18.7544 32.7569 21.1541 32.8635 21.6553C32.4583 21.6553 31.2208 21.6553 30.7088 21.6553ZM33.9086 15.1816H31.9035C31.2852 15.1816 30.8154 15.3628 30.5487 16.0134L26.6982 25.2068H29.4182C29.4182 25.2068 29.866 23.9694 29.9622 23.7029C30.2606 23.7029 32.9066 23.7029 33.2904 23.7029C33.3649 24.0549 33.5997 25.2068 33.5997 25.2068H35.9999L33.9086 15.1816Z" fill="#00579F"/>
<path d="M13.109 15.1816L10.5703 22.0179L10.2929 20.6314C9.82357 19.0316 8.35161 17.2935 6.70898 16.4292L9.03429 25.1963H11.7755L15.85 15.1816H13.109Z" fill="#00579F"/>
<path d="M8.2133 15.1816H4.04267L4 15.3842C7.25336 16.2161 9.40799 18.2215 10.2932 20.6319L9.38659 16.0244C9.23732 15.3841 8.77861 15.2028 8.2133 15.1816Z" fill="#FAA61A"/>
</g>
<defs>
<clipPath id="clip0_1712_23836">
<rect width="32" height="10.3564" fill="white" transform="translate(4 15)"/>
</clipPath>
</defs>
</svg>
