<svg width="24" height="24" viewBox="0 0 24 24" xmlns="http://www.w3.org/2000/svg">
<path d="M5.25 6.8125H20.2499C20.6311 6.81294 20.9965 6.96453 21.266 7.23404C21.5355 7.50354 21.6871 7.86894 21.6875 8.25007V18.7499C21.6871 19.1311 21.5355 19.4965 21.266 19.766C20.9965 20.0355 20.6311 20.1871 20.2499 20.1875H5.25007C4.6701 20.1868 4.11406 19.9561 3.70396 19.546C3.29385 19.1359 3.06316 18.5799 3.0625 17.9999L3.0625 6.00004C3.06317 5.42007 3.29386 4.86405 3.70396 4.45396C4.11406 4.04385 4.6701 3.81316 5.25007 3.8125L18 3.8125C18.1823 3.8125 18.3572 3.88493 18.4861 4.01386C18.6151 4.1428 18.6875 4.31766 18.6875 4.5C18.6875 4.68234 18.6151 4.8572 18.4861 4.98614C18.3572 5.11507 18.1823 5.1875 18 5.1875H5.25C5.03451 5.1875 4.82785 5.2731 4.67548 5.42548C4.5231 5.57785 4.4375 5.78451 4.4375 6C4.4375 6.21549 4.5231 6.42215 4.67548 6.57452C4.82785 6.7269 5.03451 6.8125 5.25 6.8125ZM16.2153 14.4874C16.4105 14.6179 16.6401 14.6875 16.875 14.6875C17.1899 14.6875 17.492 14.5624 17.7147 14.3397C17.9374 14.117 18.0625 13.8149 18.0625 13.5C18.0625 13.2651 17.9929 13.0355 17.8624 12.8403C17.7319 12.645 17.5464 12.4928 17.3294 12.4029C17.1124 12.313 16.8737 12.2895 16.6433 12.3353C16.413 12.3811 16.2014 12.4942 16.0353 12.6603C15.8692 12.8264 15.7561 13.038 15.7103 13.2683C15.6645 13.4987 15.688 13.7374 15.7779 13.9544C15.8678 14.1714 16.02 14.3569 16.2153 14.4874Z" stroke-width="0.125"/>
</svg>
