<svg width="40" height="40" viewBox="0 0 40 40" fill="none" xmlns="http://www.w3.org/2000/svg">
<rect width="40" height="40" rx="20" fill="#696969"/>
<path d="M12.9162 15.8738C16.8289 12.0421 23.1711 12.0421 27.0889 15.8738L27.5596 16.3344C27.757 16.5267 27.757 16.8355 27.5596 17.0278L25.95 18.6071C25.8538 18.7033 25.6919 18.7033 25.5957 18.6071L24.9478 17.9744C22.2195 15.3018 17.7906 15.3018 15.0623 17.9744L14.3689 18.6526C14.2727 18.7488 14.1107 18.7488 14.0146 18.6526L12.3999 17.0734C12.2025 16.881 12.2025 16.5723 12.3999 16.3799L12.9162 15.8738ZM30.4195 19.1335L31.8519 20.5356C32.0494 20.7279 32.0494 21.0367 31.8519 21.229L25.3882 27.5612C25.1908 27.7536 24.8769 27.7536 24.6795 27.5612L20.0886 23.0664C20.038 23.0209 19.962 23.0209 19.9114 23.0664L15.3255 27.5612C15.1281 27.7536 14.8143 27.7536 14.6169 27.5612L8.14805 21.2341C7.95065 21.0418 7.95065 20.733 8.14805 20.5407L9.58051 19.1386C9.77792 18.9462 10.0917 18.9462 10.2891 19.1386L14.8801 23.6333C14.9307 23.6789 15.0066 23.6789 15.0573 23.6333L19.6432 19.1386C19.8406 18.9462 20.1544 18.9462 20.3518 19.1386L24.9427 23.6333C24.9934 23.6789 25.0693 23.6789 25.1199 23.6333L29.7108 19.1386C29.9032 18.9412 30.2221 18.9412 30.4195 19.1335Z" fill="white"/>
</svg>
