<svg width="16" height="16" viewBox="0 0 16 16" fill="none" xmlns="http://www.w3.org/2000/svg">
<path d="M2.98073 13.6694H13.0207C14.0474 13.6694 14.6874 12.5561 14.1741 11.6694L9.15407 2.99605C8.64073 2.10939 7.36073 2.10939 6.8474 2.99605L1.8274 11.6694C1.31407 12.5561 1.95407 13.6694 2.98073 13.6694ZM8.00073 9.00272C7.63407 9.00272 7.33407 8.70272 7.33407 8.33606V7.00272C7.33407 6.63605 7.63407 6.33605 8.00073 6.33605C8.3674 6.33605 8.6674 6.63605 8.6674 7.00272V8.33606C8.6674 8.70272 8.3674 9.00272 8.00073 9.00272ZM8.6674 11.6694H7.33407V10.3361H8.6674V11.6694Z" fill="#FF3D50"/>
</svg>
