<svg width="16" height="16" viewBox="0 0 16 16" fill="none" xmlns="http://www.w3.org/2000/svg">
<path d="M7.99967 1.33325C4.33301 1.33325 1.33301 4.33325 1.33301 7.99992C1.33301 11.6666 4.33301 14.6666 7.99967 14.6666C11.6663 14.6666 14.6663 11.6666 14.6663 7.99992C14.6663 4.33325 11.6663 1.33325 7.99967 1.33325ZM10.3663 10.5333L7.64634 8.85992C7.44634 8.73992 7.32634 8.52659 7.32634 8.29325V5.16659C7.33301 4.89325 7.55967 4.66659 7.83301 4.66659C8.10634 4.66659 8.33301 4.89325 8.33301 5.16659V8.13325L10.893 9.67325C11.133 9.81992 11.213 10.1333 11.0663 10.3733C10.9197 10.6066 10.6063 10.6799 10.3663 10.5333Z" fill="black"/>
</svg>
