<svg width="32" height="32" viewBox="0 0 32 32" fill="none" xmlns="http://www.w3.org/2000/svg">
<path d="M26.6667 5.33325H5.33341C3.86675 5.33325 2.68008 6.53325 2.68008 7.99992L2.66675 23.9999C2.66675 25.4666 3.86675 26.6666 5.33341 26.6666H26.6667C28.1334 26.6666 29.3334 25.4666 29.3334 23.9999V7.99992C29.3334 6.53325 28.1334 5.33325 26.6667 5.33325ZM5.33341 11.9999H19.3334V16.6666H5.33341V11.9999ZM5.33341 19.3333H19.3334V23.9999H6.66675C5.93341 23.9999 5.33341 23.3999 5.33341 22.6666V19.3333ZM25.3334 23.9999H22.0001V11.9999H26.6667V22.6666C26.6667 23.3999 26.0667 23.9999 25.3334 23.9999Z" fill="#D7FC51"/>
</svg>
